<?xml version="1.0" encoding="utf-8"?>
<!-- Generator: Adobe Illustrator 16.0.0, SVG Export Plug-In . SVG Version: 6.00 Build 0)  -->
<!DOCTYPE svg PUBLIC "-//W3C//DTD SVG 1.1//EN" "http://www.w3.org/Graphics/SVG/1.1/DTD/svg11.dtd">
<svg version="1.1" id="Слой_1" xmlns="http://www.w3.org/2000/svg" xmlns:xlink="http://www.w3.org/1999/xlink" x="0px" y="0px"
	 width="170.08px" height="170.08px" viewBox="0 0 170.08 170.08" enable-background="new 0 0 170.08 170.08" xml:space="preserve">
<circle id="yellow" fill="#F0DB4F" cx="84.373" cy="84.373" r="84.373"/>
<path id="black" fill-rule="evenodd" clip-rule="evenodd" fill="#343432" d="M152.09,116.121c-0.184,0.709-1.048,0.157-0.396-0.245
	c0.089-0.056,0.244-0.076,0.337-0.102C152.056,115.869,152.122,116.01,152.09,116.121z M62.983,141.878
	c7.521,0.059,15.052-0.249,22.569-0.092c0.535,0.01,1.039,0.162,1.566,0.205h10.563c7.62-0.057,15.238-0.186,22.86-0.126
	c8.522,0.065,17.046,0.102,25.569,0.117c-15.494,16.473-37.49,26.764-61.89,26.764c-24.477,0-46.532-10.354-62.035-26.92
	C35.788,141.785,49.39,141.773,62.983,141.878z M9.549,120.895c0.114-0.412,0.785-0.643,1.129-0.356
	c0.375,0.312-0.313,0.438-0.488,0.452c0.125,0.635,0.717,1.258,0.664,1.907c-0.037,0.441-0.508,0.612-0.613,1.032
	c-0.099,0.383-0.133,0.897-0.128,1.415c-0.196-0.349-0.394-0.694-0.584-1.046C9.51,123.257,9.274,121.886,9.549,120.895z
	 M11.907,126.741l-0.014-3.386c-0.001-0.434-0.113-1.046,0.062-1.451c0.17-0.392,0.889-0.5,1.171-0.164
	c0.134,0.159,0.113,0.401,0.118,0.592l-0.565-0.11c0.12,1.136,0.714,1.963,0.579,3.157c-0.281-0.17-0.39-0.394-0.567-0.674
	c-0.069,0.454,0.018,0.894,0.001,1.354c-0.028,0.803-0.202,1.485,0.126,2.26c0.169-0.721,0.165-1.502,0.556-2.147
	c0.37,0.757,0.43,2.957-0.665,3.049c0.093,0.297,0.417,0.519,0.468,0.812c0.019,0.113,0.012,0.227-0.005,0.341
	c-0.428-0.651-0.847-1.307-1.257-1.971L11.907,126.741z M15.432,130.788c-0.057-0.8,0.257-1.991-0.358-2.593
	c0.005,1.571-0.123,3.157-0.164,4.732c-0.321-0.452-0.637-0.91-0.95-1.369l-0.013-3.132c-0.008-1.844-0.242-3.867,0.314-5.646
	c0.765,0.404,0.443,1.21,0.662,1.915c0.139,0.44,0.41,0.773,0.48,1.239c0.498-0.553-0.148-1.631,0.667-1.922
	c0.06,1.198,0.48,2.392,0.57,3.607c0.128,1.761-0.048,3.544,0.038,5.303c0.028,0.609,0.175,1.205,0.217,1.809
	c0.017,0.236,0.017,0.538-0.004,0.866c-0.458-0.594-0.907-1.194-1.349-1.8C15.531,132.795,15.506,131.792,15.432,130.788z
	 M14.504,127.294c-0.076,0.338-0.089,0.566,0.003,0.902C14.727,127.869,14.727,127.621,14.504,127.294z M15.517,126.048
	c-0.168,0.579-0.107,1.205-0.105,1.808C15.704,127.362,15.739,126.572,15.517,126.048z M127.647,141.495
	c-0.541-0.006-1.041-0.205-1.58-0.216c-7.326-0.186-14.677,0.146-22.007,0.09c-7.061-0.055-14.146,0.029-21.216-0.026
	c-4.318-0.033-8.662-0.188-12.98-0.17c-10.603,0.046-21.215,0.219-31.824,0.133c-0.579-0.009-1.117-0.204-1.691-0.218
	c-4.325-0.095-8.655,0.032-12.98,0.049l-1.816,0.008c-0.298-0.325-0.592-0.655-0.884-0.985c3.679,0.018,7.355,0.052,11.04,0.035
	c7.496-0.031,14.974,0.189,22.459,0.245c9.553,0.074,19.113-0.078,28.666-0.118c8.913-0.034,17.835,0.032,26.745-0.11
	c1.054-0.02,2.107-0.187,3.164-0.232c1.094-0.053,2.184,0.059,3.27,0.052c1.048-0.004,2.108-0.126,3.159-0.116
	c1.306,0.012,2.646-0.056,3.95,0.025c1.812,0.118,3.61,0.404,5.42,0.52c1.64,0.108,3.321-0.003,4.966-0.011
	c3.802-0.018,7.604-0.2,11.397-0.382c1.001-0.048,2.007-0.063,3.013-0.063c-0.447,0.506-0.901,1.008-1.36,1.503
	C140.251,141.542,133.949,141.553,127.647,141.495z M149.51,133.01c0.197-0.252,0.725-0.21,1.01-0.249
	c0.612-0.085,1.91-0.145,2.239,0.529c0.066,0.137,0.104,0.323,0.126,0.529c-0.225,0.309-0.449,0.617-0.677,0.921
	c0.003-0.075,0.012-0.152,0.013-0.23h-0.338c-0.018,0.229-0.103,0.549-0.174,0.881c-0.15,0.196-0.3,0.394-0.451,0.59
	c0.063-0.474,0.063-0.972,0.063-1.355l-0.224,0.002c-0.178,0.582-0.347,1.299-0.307,1.947c-0.291,0.367-0.584,0.731-0.882,1.093
	c-0.146-0.013-0.288-0.051-0.382-0.166c-0.203-0.257-0.116-0.758-0.117-1.062l-0.011-2.483
	C149.396,133.677,149.325,133.246,149.51,133.01z M152.221,133.942l-0.002-0.225c-0.735-0.171-1.505-0.106-2.256-0.104l0.004,0.338
	C150.7,133.949,151.498,134.062,152.221,133.942z M149.863,137.001c0.604-0.392,0.327-1.713,0.325-2.372l-0.338,0.003
	L149.863,137.001z M159.507,123.081c-0.846,0.126-2.007,0.681-2.816,0.151c-1.005-0.658-0.716-2.52-0.583-3.523
	c0.062-0.451,0.077-0.978,0.461-1.277c0.821-0.646,2.123-0.225,3.032-0.091l-0.008-1.583c0.737,0.36,0.796,1.055,0.8,1.805
	c0.006,1.297-0.371,2.462-0.426,3.736c-0.147,0.289-0.299,0.574-0.449,0.861C159.514,123.135,159.511,123.106,159.507,123.081z
	 M158.477,118.68c-0.426-0.047-0.76-0.16-1.016,0.234l1.016-0.006V118.68z M158.933,119.958c-0.281-0.417-1.594-0.367-2.005-0.171
	c-0.507,0.242-0.361,1.044-0.359,1.497c0.003,0.347-0.089,0.89,0.119,1.185c0.304,0.415,1.591,0.395,2.014,0.206
	c0.513-0.223,0.352-1.061,0.349-1.512C159.05,120.807,159.141,120.269,158.933,119.958z M159.716,119.126
	c0.098-0.229,0.098-0.332,0-0.563V119.126z M161.209,119.747c-0.007-0.51-0.014-1.02-0.015-1.526
	c-0.003-0.55,0.178-1.234,0.522-1.673c0.157-0.199,0.586-0.479,0.801-0.184c0.258,0.356-0.438,0.833-0.604,1.087
	c-0.211,0.312-0.244,0.809-0.216,1.242C161.539,119.047,161.372,119.396,161.209,119.747z M136.381,29.742
	c0.932,0.943,1.69,1.958,3.112,4.163c-3.882,2.474-3.871,2.45-9.43,6.051c-1.188-2.559-3.16-4.164-5.242-4.862
	c-3.234-0.979-7.313,0.086-8.156,3.503c-0.295,1.053-0.233,2.033,0.231,3.771c1.311,2.989,5.706,4.287,9.65,6.1
	c11.354,4.605,15.187,9.54,16.131,15.418c0.905,5.058-0.222,8.341-0.393,8.828c-4.189,14.332-27.544,14.796-36.877,5.329
	c-1.973-2.229-3.208-3.39-4.385-5.963c4.961-2.855,4.961-2.855,9.786-5.646c2.621,4.028,5.046,6.245,9.406,7.154
	c5.915,0.722,11.867-1.311,10.531-7.593c-1.371-5.134-12.112-6.383-19.422-11.869c-7.423-4.984-9.161-17.096-3.063-24.016
	c2.032-2.56,5.498-4.47,9.136-5.389c1.262-0.16,2.536-0.331,3.797-0.491C128.482,24.084,133.038,26.007,136.381,29.742z
	 M94.424,58.167c0.024,6.773,0.611,12.896-2.131,17.953c-1.899,3.859-5.524,6.394-9.725,7.619c-6.454,1.483-12.628,0.638-17.22-2.12
	c-3.074-1.884-5.475-4.787-7.103-8.129c3.27-1.999,6.527-4.007,9.797-6.002c0.086,0.038,0.344,0.502,0.686,1.103
	c1.249,2.093,2.327,3.576,4.446,4.616c2.083,0.712,6.65,1.164,8.413-2.497c1.079-1.861,0.736-7.936,0.736-14.562
	c0-10.41,0.048-20.747,0.048-31.157h12.053C94.424,36.074,94.483,47.121,94.424,58.167z M157.214,114.402
	c-0.405,0.002-1.406-0.053-1.688,0.3c-0.169,0.214-0.106,0.564-0.099,0.814c0.014,0.534-0.009,1.066-0.008,1.602
	c0.46-0.222,0.756-0.622,1.239-0.797c-0.303,0.973-0.713,1.908-0.857,2.94c-0.161,1.162-0.027,2.433-0.021,3.61
	c0.003,0.868-0.128,1.867,0.126,2.708c0.693-0.21,1.28-0.636,2.03-0.677c0.208-0.012,0.409,0.016,0.607,0.059
	c-0.111,0.202-0.225,0.405-0.338,0.605l-1.167,0.005c0.182,0.277,0.585,0.396,0.962,0.361c-0.182,0.319-0.37,0.633-0.557,0.948
	c-0.24,0.021-0.466,0.042-0.625,0.043c0,0.267-0.054,0.697-0.07,1.124c-0.694,1.135-1.412,2.252-2.158,3.351
	c-0.125-1.375-0.252-2.752-0.387-4.12c-0.217-2.178-0.452-4.357-0.461-6.55c-0.306,0.744-0.216,1.906-0.213,2.714l0.02,5.076
	l0.01,1.808c-0.001,0.272,0.046,0.628-0.111,0.867c-0.232,0.346-0.77,0.252-1.128,0.323c-1.021,0.211-1.793,0.375-2.816,0.052
	c-0.375-0.117-0.781-0.221-0.854-0.661c-0.161-0.979,0.089-2.153,0.039-3.156c-0.145-3.051-0.472-6.21-0.112-9.255
	c0.114-0.967,0.584-1.781,0.744-2.713l0.451-0.001c-0.048,0.696-0.527,1.232-0.64,1.919c-0.229,1.397-0.018,2.99-0.011,4.405
	c0.004,0.904-0.136,1.949,0.124,2.823c0.465-0.2,1.316-0.657,1.805-0.646c0.438,0.011,0.703,0.445,1.135,0.499
	c1.099,0.148,0.871-1.45,0.664-2.128c-0.819,0.154-1.651,0.122-2.48,0.122c-0.299,0-0.704,0.057-0.935-0.175
	c-0.396-0.398-0.203-1.449-0.205-1.964c-0.002-0.6-0.103-1.599,0.211-2.131c0.72-1.216,2.28-0.912,3.276-0.365l-0.002-1.017
	c0.297,0.143,0.46,0.313,0.68,0.561c0.206-0.709,0.11-1.521,0.102-2.255c-0.003-0.251,0.039-0.616-0.185-0.788
	c-0.332-0.262-1.111-0.112-1.513-0.109l-3.834,0.016c0.005,1.412-0.222,2.774-0.312,4.178c-0.291,4.517-0.652,9.012-0.633,13.546
	c0.007,1.4-0.044,2.78-0.099,4.179c-0.018,0.434-0.281,1.146,0.079,1.496c0.435,0.422,1.529,0.165,2.078,0.154
	c0.154-0.003,0.313-0.003,0.47-0.002c-0.146,0.176-0.295,0.349-0.442,0.523c-0.487,0.03-0.96,0.087-1.384,0.19
	c0.298,0.191,0.694,0.189,1.089,0.157c-0.212,0.249-0.427,0.496-0.641,0.742c-0.186,0-0.372,0-0.558,0.003
	c-4.282,0.068-8.57,0.251-12.866,0.162c-0.643-0.01-1.276-0.186-1.918-0.2c-0.824-0.016-1.654,0.154-2.484,0.123
	c-1.688-0.067-3.391-0.12-5.077-0.228c-0.566-0.039-1.129-0.21-1.696-0.201c-0.463,0.009-0.887,0.207-1.353,0.221
	c-5.041,0.17-10.075,0.032-15.119,0.182c-1.093,0.029-2.187,0.173-3.275,0.208c-3.288,0.099-6.633-0.059-9.933-0.045
	c-8.379,0.036-16.789,0.273-25.167,0.106c-1.649-0.034-3.316-0.194-4.967-0.208c-12.15-0.091-24.301-0.124-36.453-0.073
	c-2.361,0.01-4.723-0.054-7.084-0.107c-0.148-0.169-0.296-0.339-0.443-0.51c0.249,0.026,0.498,0.023,0.757-0.028l-0.001-0.224
	c-0.363-0.112-0.734-0.208-1.065-0.115c-0.525-0.617-1.042-1.242-1.55-1.876c0.327-0.705,0.19-1.852,0.274-2.517
	c0.305-2.398,0.181-4.827-0.058-7.224c-0.091-0.91-0.017-1.882-0.485-2.709c-0.474,1.291-0.213,2.938-0.207,4.293
	c0.014,2.554-0.063,5.126,0.088,7.676c-0.174-0.22-0.344-0.441-0.515-0.663l-0.033-7.69l-0.014-3.161
	c0-0.386,0.104-0.967-0.073-1.318c-0.171-0.346-0.852-0.325-1.17-0.512c-0.33-0.195-0.594-0.474-0.916-0.681
	c-0.704-0.453-1.533-0.746-1.92-1.532l0.451-0.118c-0.535-0.822-2.176-1.876-3.17-1.905c0.587,0.724,1.561,1.502,2.491,1.684
	c-0.356,0.647-0.979,0.24-1.467-0.092c-0.858-0.57-2.318-1.694-3.393-1.469l0.116,0.45c-0.288,0.033-0.533,0.14-0.694,0.313
	c-0.219-0.471-0.436-0.94-0.647-1.415c-0.005-0.232-0.01-0.463-0.011-0.693c-0.001-0.407-0.124-1.055,0.062-1.43
	c0.238-0.473,0.977,0.058,1.269,0.22c1.057,0.579,2.673,1.239,3.3,2.321c0.308-0.035,0.596-0.021,0.904-0.005
	c-0.15-0.956-1.314-1.286-1.362-2.253c-0.018-0.394-0.142-1.165,0.173-1.464c0.46-0.438,1.394,0.028,1.505-0.802
	c0.092-0.685-0.005-1.446-0.004-2.141c0-0.494,0.1-0.981,0.004-1.47c-0.09-0.456-0.177-0.919-0.343-1.349
	c-0.105-0.277-0.319-0.593-0.293-0.894c0.03-0.337,0.373-0.553,0.555-0.808c0.241-0.33,0.417-0.824,0.428-1.237
	c0.011-0.505-0.435-0.953-0.305-1.468c0.284-1.114,1.586-1.685,1.954-2.717c0.155-0.436-0.056-0.901,0.087-1.352
	c0.158-0.503,0.5-0.898,0.741-1.359c0.307-0.583,0.53-1.273,0.662-1.919c0.274-1.313,0.373-2.727,0.259-4.064
	c-0.039-0.464-0.206-0.892-0.22-1.356c-0.029-0.996,0.215-1.935,0.211-2.935c-0.316,0.04-0.598,0.133-0.901,0.229
	c-0.181-0.854,0.652-0.803,1.01-1.472c0.413,0.114,0.763,0.337,0.868,0.791c0.16,0.684-0.095,1.665-0.158,2.365
	c-0.087,0.929-0.013,1.895-0.008,2.819c0.003,1.198,0.12,2.224,0.316,3.386c0.069,0.415,0.002,0.84,0.151,1.243
	c0.213,0.575,0.907,0.801,1.054,1.358c0.1,0.366-0.079,0.746-0.05,1.119c0.033,0.442,0.236,0.959,0.424,1.354
	c0.21,0.443,0.491,1.025,0.806,1.396c0.22,0.262,0.519,0.431,0.675,0.74c0.237,0.482-0.141,0.887-0.2,1.358
	c-0.112,0.899,0.422,1.816,1.172,2.25c-0.276,1.013-0.776,1.973-0.824,3.055c-0.024,0.545,0.166,1.124,0.167,1.691
	c0.002,0.479-0.175,1.243,0.01,1.679c0.332,0.786,1.571,0.072,1.682,1.134c0.054,0.524-0.199,0.881-0.333,1.356
	c-0.083,0.301-0.022,0.607-0.131,0.906c-0.144,0.392-0.414,0.731-0.548,1.131c-0.184,0.555-0.085,1.229-0.083,1.806l41.532-0.174
	c-0.009-1.988,0.163-4.004,0.109-5.981c-0.032-1.164-0.143-2.324-0.147-3.497c-0.004-0.965-0.09-2.702,0.909-3.274
	c0.661-0.381,1.789,0.328,2.463,0.482c1.218,0.276,2.729,0.143,3.838-0.373c0.457-0.212,0.92-0.361,1.291,0.098
	c0.379,0.472,0.217,1.022,0.22,1.563c0.001,0.523,0.077,1.05,0.08,1.581c0.001,0.335-0.093,0.9,0.187,1.157
	c0.464,0.423,1.61,0.145,2.19,0.223c2.466,0.324,4.975,0.069,7.45,0.047c1.952-0.02,3.922-0.036,5.871,0.094
	c1.014,0.072,2.019,0.272,3.048,0.315c0.763,0.028,1.5-0.115,2.255-0.12c0.87-0.005,1.729-0.098,2.595-0.123
	c0.554-0.013,1.148,0.067,1.693-0.033c0.405-0.075,0.771-0.344,0.845-0.765c0.084-0.466-0.099-1.04,0.507-1.209
	c0.831-0.232,1.953-0.045,2.814-0.048l6.095-0.026c0.016,0.616,0.217,1.189,0.234,1.806l6.884-0.029l1.691-0.006
	c0.233,0,0.536,0.031,0.703-0.172c0.207-0.255,0.087-0.771,0.084-1.074l-0.014-2.822c-0.002-0.378-0.12-1.111,0.269-1.347
	c0.395-0.236,1.033,0.233,1.422,0.328c0.37,0.091,0.749,0.088,1.127,0.119c0.812,0.083,2.053,0.562,2.748-0.094
	c0.555-0.522,0.177-1.349,0.089-1.965c-0.064-0.446-0.007-0.906-0.038-1.353c-0.071-0.963-0.323-2.127,0.099-3.046
	c0.05-0.109,0.117-0.216,0.194-0.31c0.692-0.844,1.004,0.084,1.643,0.429c0.388,0.203,1.163,0.189,1.543-0.045
	c0.396-0.245,0.233-0.721,0.259-1.108c0.051-0.728-0.008-1.55,0.15-2.258c0.098-0.447,0.371-1.229,0.059-1.646
	c-0.165-0.212-0.462-0.267-0.697-0.365c-0.668-0.276-1.353-0.451-2.035-0.687l-0.002-0.227c0.946-0.325,1.692-0.835,2.591-1.231
	c0.305-0.134,0.762-0.331,1.092-0.182c0.484,0.229,0.269,1.521,0.271,1.963c0.004,1.358-0.025,2.712,0.11,4.064
	c0.047,0.475-0.026,1.009,0.213,1.448c0.235,0.443,1.258,0.548,1.669,0.306c0.255-0.148,0.342-0.497,0.638-0.588
	c0.269-0.087,0.563,0.125,0.752,0.3c0.48,0.446,0.485,1.186,0.486,1.79c-0.001,0.77-0.232,1.466-0.326,2.215
	c-0.108,0.844-0.066,1.687,0.006,2.531c1.238,0.003,2.481,0.25,3.713-0.048c0.483-0.115,0.805-0.823,1.313-0.388
	c0.977,0.838,0.547,2.365,0.409,3.461c-0.104,0.803-0.239,1.511,0.68,1.843c1.77,0.644,3.796,0.393,5.642,0.385
	c0.803-0.004,1.821,0.162,2.594-0.047c0.979-0.259,0.211-1.656,1.041-2.043c0.523-0.242,1.435-0.074,2.001-0.077l4.627-0.021
	c0.563-0.001,1.613-0.207,2.103,0.11c0.549,0.352,0.43,1.558,0.613,2.137c0.826-0.198,1.652-0.043,2.487-0.13
	c2.005-0.212,3.974-0.237,5.959-0.173c-0.138,0.387-0.28,0.771-0.425,1.155c-0.942,0.01-1.885,0.02-2.826,0.023
	c-1.113,0.006-2.275,0.103-3.386,0c-0.72-0.067-1.501-0.255-2.027,0.361l8.119-0.068c-0.047,0.124-0.093,0.247-0.142,0.371
	c-0.477,0.003-0.955,0.009-1.432,0.011C160.451,114.386,158.834,114.385,157.214,114.402z M149.258,126.62
	c0.076-0.178,0.076-0.165-0.004-0.341L149.258,126.62z M149.248,125.379l0.006,0.564
	C149.347,125.712,149.347,125.606,149.248,125.379z M149.812,125.265c0.351,0.538,1.912,0.532,2.257-0.011
	C151.299,125.256,150.584,125.165,149.812,125.265z M152.076,126.495c-0.463-0.056-1.944-0.403-2.184,0.158
	c-0.137,0.316,0.051,0.754,0.023,1.095c-0.027,0.336-0.286,0.875,0.067,1.124c0.485,0.341,1.54,0,2.104-0.008L152.076,126.495z
	 M152.881,129.314c-0.757,0.036-1.506,0.099-2.259,0.144c-0.308,0.015-0.712-0.063-0.988,0.101c-0.547,0.323-0.473,1.364,0.1,1.606
	c1.086,0.453,2.077-0.244,3.153-0.271L152.881,129.314z M152.041,118.37c-0.543-0.098-1.938-0.416-1.804,0.46
	c0.633-0.122,1.174-0.087,1.806-0.009L152.041,118.37z M152.043,119.383c-0.499,0.006-1.438-0.173-1.868,0.126
	c-0.48,0.334-0.274,1.518-0.265,2.03c0.004,0.225-0.016,0.52,0.184,0.674c0.4,0.315,1.471,0.108,1.964,0.106L152.043,119.383z
	 M8.145,117.348c-0.203-0.118-0.583-0.354-0.787-0.113c-0.28,0.334,0.216,0.591,0.453,0.696c0.824,0.361,1.326,0.806,2.257,0.804
	C9.562,118.226,8.77,117.708,8.145,117.348z M61.885,127.055c-0.195-0.247-0.611-0.181-0.885-0.183
	c-0.297,0.002-0.795-0.083-1.045,0.124c-0.333,0.271-0.346,1.868-0.006,2.137c0.419,0.329,1.562,0.109,2.076,0.105
	C62.024,128.691,62.245,127.502,61.885,127.055z M61.9,125.63c-0.591,0.003-1.58-0.338-1.806,0.346
	C60.746,126.024,61.525,126.312,61.9,125.63z M59.094,129.361c-0.098,0.467-0.177,1.851,0.269,2.142
	c0.442,0.293,1.375,0.113,1.883,0.113c0.361-0.005,1.208,0.213,1.464-0.094c0.34-0.408,0.134-1.707-0.006-2.172H62.48
	C61.617,130.262,60.078,129.765,59.094,129.361z M24.6,139.104c1.955-0.022,3.913-0.037,5.867-0.026
	c6.239,0.042,12.49,0.063,18.736,0.037c1.413-0.008,2.775,0.145,4.177,0.204c1.732,0.064,3.466-0.045,5.191-0.127
	c1.091-0.054,2.335,0.18,3.386-0.132c-0.562-0.423-1.58-0.22-2.259-0.217c-1.914,0.009-3.843,0.092-5.754,0.021
	c-5.437-0.2-10.939-0.127-16.366-0.042c-2.272,0.038-4.519-0.199-6.772-0.09c-2.299,0.111-4.594-0.088-6.883-0.078
	c-0.636,0.005-1.905-0.27-2.145,0.461C22.744,139.288,23.634,139.111,24.6,139.104z M19.482,137.927
	c0.502,0.471,1.008,0.036,1.045-0.499c-0.238,0.1-0.236,0.1-0.335,0.338c-0.345-0.118-0.493-0.244-0.68-0.561l-0.337,0.002
	C19.236,137.456,19.284,137.742,19.482,137.927z M19.842,134.833l-0.226,0.002l0.007,1.691
	C19.973,136.03,20.013,135.404,19.842,134.833z M19.161,134.16c0.018-0.361,0.134-1.469,0.682-1.398
	c0.275,0.032,0.543,0.355,0.781,0.49c0.192-1.069,0.297-2.566-0.014-3.61h-0.227c-0.577,0.732-0.702,0.346-1.354,0.005
	c-0.294,1.011-0.081,2.228-0.101,3.271C18.921,133.386,18.735,133.856,19.161,134.16z M20.37,126.142
	c0.241-0.43,0.111-0.88,0.109-1.357c-0.002-0.471,0.092-0.902,0.219-1.354c-0.403-0.095-1.29-0.299-1.604,0.075
	c-0.161,0.19-0.097,0.5-0.071,0.723c0.071,0.567-0.005,1.137,0.106,1.692l0.227-0.002c0.06-0.204,0.091-0.352,0.109-0.563
	C19.927,125.483,20.128,125.731,20.37,126.142z M19.585,127.498l0.007,1.805h0.226c-0.001-0.604,0.163-1.222-0.007-1.805H19.585z
	 M14.25,120.299c0.282-0.97-0.244-1.228-1.131-1.016C13.36,119.797,13.714,120.118,14.25,120.299z M14.555,111.831
	c-0.001-0.251,0.049-0.623-0.119-0.835c-0.454-0.563-1.196-0.048-1.236,0.505C13.733,111.497,14.076,111.604,14.555,111.831z
	 M13.674,118.542c0.157-0.012,0.317-0.105,0.457-0.164c-0.075-0.146-0.115-0.291-0.263-0.385
	C13.084,117.489,12.779,118.607,13.674,118.542z M11.655,115.765c-0.363,0.171-0.279,0.54,0.002,0.752
	c0.293,0.218,0.969,0.269,1.303,0.105c0.288-0.145,0.329-0.629,0.08-0.829C12.758,115.571,11.959,115.621,11.655,115.765z
	 M12.963,109.126c0.489-0.149,0.846-0.176,1.354-0.117C14.237,108.038,12.708,108.097,12.963,109.126z M14.968,102.688
	c-0.393,0.58-1.105,1.065-1.347,1.697l0.112,0.113c1.004-0.344,1.463-0.74,1.46-1.811H14.968z M14.461,116.686
	c1.506-0.288,2.939,0.245,4.4-0.357c-0.519-0.981-2.329-0.861-3.275-0.688C14.969,115.746,14.292,115.951,14.461,116.686z
	 M15.712,118.648c0.772,0.2,1.788-0.057,2.595-0.063l0.221-1.468c-0.46,0.157-0.972,0.625-1.467,0.603
	c-0.343-0.016-0.681-0.278-1.016-0.366c-0.243,0.287-0.985,0.324-1.087,0.603C14.823,118.329,15.454,118.582,15.712,118.648z
	 M15.156,120.86l1.581-0.007c0.411-0.003,1.052,0.112,1.431-0.075c0.375-0.188,0.388-1.265,0.074-1.513
	c-0.44-0.345-1.763-0.124-2.303-0.104c-0.226,0.01-0.517,0.003-0.673,0.199C15.003,119.687,15.155,120.462,15.156,120.86z
	 M15.536,114.532c0.257,0.201,0.758,0.114,1.06,0.109c0.26,0,0.619,0.038,0.836-0.135c0.323-0.259,0.25-1.193,0.217-1.563
	c-0.042-0.464,0.162-1.701-0.231-2.009c-0.264-0.21-0.748-0.133-1.062-0.13c-0.254,0-0.622-0.05-0.834,0.12
	c-0.317,0.256-0.176,0.995-0.175,1.35C15.35,112.773,15.112,114.199,15.536,114.532z M16.413,97.49
	c-0.294,0.969-0.771,1.911-0.778,2.937c0.641-0.343,0.807-0.686,1.578-0.457C17.126,99.281,16.839,98.026,16.413,97.49z
	 M16.936,102.737c-0.877-0.851-1.613,0.979-1.509,1.641c0.641-0.125,1.269-0.119,1.918-0.123
	C17.322,103.775,17.307,103.098,16.936,102.737z M17.134,108.324c-0.4-0.018-1.411-0.168-1.687,0.186
	c-0.262,0.335-0.111,1.11-0.11,1.511l2.482-0.007c-0.03-0.378,0.071-1.218-0.144-1.514
	C17.551,108.331,17.322,108.331,17.134,108.324z M19.263,103.91c-0.629-0.182-0.902-0.815-1.474-1.121
	c-0.189,0.947,0.624,1.452,1.475,1.459L19.263,103.91z M18.941,108.314l-0.11,0.563c0.264,0.099,0.514,0.167,0.791,0.22
	C19.778,108.499,19.521,108.331,18.941,108.314z M19.288,109.781v0.224l0.336-0.002v-0.226L19.288,109.781z M19.625,110.974
	c-0.522-0.649-1.032,0.311-1.122,0.727c0.515-0.101,0.759-0.101,1.242,0.109C19.746,111.558,19.797,111.186,19.625,110.974z
	 M19.259,120.661c0.185,0.284,0.919,0.227,1.165,0.058c0.764-0.521-0.093-2.167-1.053-1.456c-0.217,0.161-0.168,0.446-0.168,0.676
	C19.203,120.156,19.133,120.469,19.259,120.661z M19.293,118.4c0.702,0.69,1.896-0.199,1.016-1.027
	c-0.167-0.159-0.328-0.2-0.541-0.26l0.116,0.563c-0.268,0.067-0.515,0.103-0.79,0.119C19.119,118.011,19.126,118.238,19.293,118.4z
	 M21.443,116.541c0.324-0.199,0.321-0.59-0.004-0.784c-0.329-0.2-1.092-0.19-1.434-0.03c-0.306,0.143-0.358,0.501-0.078,0.705
	C20.257,116.675,21.09,116.755,21.443,116.541z M15.725,121.643c-0.628-0.024-1.591-1.088-2.034-0.44
	c0.67,0.241,1.26,0.654,1.923,0.92c1.446,0.576,2.864,0.753,4.403,0.747c0.638-0.003,1.307,0.062,1.92-0.121
	c0.025-0.66,0.564-0.683,0.896-1.134C20.471,121.625,18.084,121.736,15.725,121.643z M22.951,122.406v0.224
	c0.79,0.294,1.555,0.125,2.372,0.218C24.913,122.075,23.69,122.181,22.951,122.406z M24.978,121.605
	c0.313,0.133,0.71,0.085,0.981,0.306c0.251,0.206,0.221,0.751,0.541,0.849c0.183,0.05,0.348-0.073,0.483-0.175
	c0.411-0.323,1.083-0.588,1.382-0.993L24.978,121.605z M28.594,122.835c0.734-0.064,1.545-0.003,2.257-0.124
	C30.396,121.975,29.041,122.145,28.594,122.835z M31.525,121.694c0.064,0.269,0.05,0.831,0.293,1.004
	c0.453,0.322,0.748-0.864,0.835-1.124C32.26,121.576,31.902,121.58,31.525,121.694z M35.248,121.563
	c0.32,0.192,0.671,0.213,1.015,0.353c0.268,0.107,0.524,0.412,0.814,0.441c0.398,0.038,1.001-0.505,1.218-0.805L35.248,121.563z
	 M33.447,122.473c0.349,0.533,1.8,0.529,2.145-0.008L33.447,122.473z M38.411,122.228c0.421,0.827,1.575,0.561,2.372,0.557
	C40.495,121.975,39.104,122.226,38.411,122.228z M43.598,121.528l-2.82,0.011c0.324,0.303,1.001,0.852,1.472,0.76
	c0.477-0.094,0.845-0.463,1.351-0.543L43.598,121.528z M43.489,122.205c0.346,0.679,1.93,0.899,2.371,0.218
	C45.056,122.423,44.29,122.211,43.489,122.205z M46.535,121.516c0.141,0.079,0.174,0.088,0.338,0.115
	C46.73,121.553,46.699,121.544,46.535,121.516z M46.984,121.631c0.167,0.383,0.225,0.707,0.23,1.127
	c0.82-0.386,1.302-0.994,2.253-1.14C48.818,121.347,47.653,121.431,46.984,121.631z M49.378,126.923l0.01,2.371l1.918-0.007
	c-0.002-0.823-0.085-1.68,0.101-2.486C50.775,126.667,50.012,126.804,49.378,126.923z M51.292,125.9
	c-0.426-0.78-1.302-0.585-1.806,0.008c0.576-0.003,1.125,0.004,1.692,0.104L51.292,125.9z M48.937,129.746
	c-0.076,0.362-0.06,0.653,0.004,1.016c0.875-0.002,2.175-0.604,2.712,0.326l-1.691,0.166l-1.13-0.154
	c0.252,0.387,0.59,0.315,1.019,0.347c0.75,0.048,1.395,0.077,2.145-0.02l-0.009-1.806h-0.228
	C51.009,130.193,49.796,129.853,48.937,129.746z M48.919,125.232c0.415-0.129,0.801-0.389,1.241-0.43
	c0.644-0.062,1.205,0.281,1.809,0.417c-0.058-0.722-0.619-1.07-0.91-1.69c0.201,0,0.169,0,0.337-0.113
	c-0.457-0.344-1.142-0.232-1.694-0.221c-0.219,0.007-0.519-0.015-0.667,0.186C48.76,123.751,48.804,124.816,48.919,125.232z
	 M49.022,122.748l2.708-0.01C51.434,121.807,49.463,122.019,49.022,122.748z M52.177,121.491l0.23,1.244
	c0.652-0.172,1.566-0.66,1.913-1.253L52.177,121.491z M54.211,122.276c0.451,0.537,1.942,0.768,2.369,0.101
	C55.802,122.381,54.958,122.059,54.211,122.276z M58.608,121.467l-1.243,0.002c0.119,0.277,0.718,1.393,1.13,0.94
	C58.689,122.198,58.608,121.729,58.608,121.467z M61.887,122.357c-0.41,0-0.836,0.037-1.242-0.013
	c-0.561-0.064-0.981-0.435-1.243,0.249l0.115,0.11c0.777-0.146,1.578-0.006,2.371-0.011L61.887,122.357z M55.457,123.173
	c-1.139,0.006-2.521-0.199-3.612,0.125c0.194,0.335,0.487,0.652,0.616,1.016c0.265,0.763,0.043,1.798,0.083,2.597
	c0.046,0.988,0.182,1.938,0.054,2.937c-0.069,0.553,0.023,1.154-0.169,1.688c-0.336,0.922-2.133,0.581-2.916,0.583
	c-0.322-0.001-0.714,0.043-0.981-0.177c-0.479-0.4-0.461-1.504-0.542-2.075c-0.192-1.36-0.312-2.817-0.064-4.176
	c0.156-0.841,0.502-1.651,0.649-2.487l-6.208,0.026c-0.845,0.004-1.985-0.192-2.797,0.05c-0.462,0.136-0.975,0.911-1.183,1.321
	c-0.083,0.159-0.186,0.418-0.001,0.548c0.254,0.188,0.686-0.096,0.941-0.158c0.699-0.17,1.365,0.17,2.033,0.053
	c-0.088-0.396-0.053-0.731-0.005-1.13c0.628,0.575,0.679,1.56,0.686,2.365c0.013,1.225,0.034,2.384-0.079,3.614
	c-0.043,0.475,0.217,1.479-0.089,1.855c-0.555,0.684-2.2,0.418-2.966,0.415c-0.343-0.001-0.704,0.013-0.954-0.258
	c-0.586-0.633-0.354-1.675-0.433-2.448c-0.095-0.981-0.196-1.944-0.221-2.932c-0.019-0.818,0.075-1.676,0.547-2.372
	c0.231-0.341,0.58-0.564,0.796-0.909l-6.319,0.026c-1,0.004-2.2-0.153-3.158,0.126c0.324,0.173,0.647,0.21,1.015,0.224l0.002,0.34
	l-1.692,0.006c-0.131-0.799-0.811-0.677-1.471-0.675c-1.316,0.005-2.639,0.153-3.949,0.129c-0.436-0.011-1.486-0.356-1.736,0.157
	c-0.172,0.354-0.065,0.935-0.063,1.318l0.011,2.821l0.042,10.271c3.075-0.013,6.179,0.111,9.256,0.174
	c1.302,0.025,2.632-0.14,3.948-0.115c5.606,0.115,11.213,0.106,16.817,0.045c2.696-0.03,5.42,0.087,8.126,0.077l2.144-0.008
	c0.291-0.002,0.701,0.063,0.967-0.074c0.438-0.224,0.212-0.916,0.175-1.287c-0.06-0.607,0.049-1.198,0.046-1.807
	c-0.001-0.46-0.099-0.886-0.046-1.354c0.041-0.37,0.238-1.065-0.105-1.349c-0.359-0.297-0.986-0.122-1.399-0.116
	c-0.883,0.02-1.731-0.239-2.597-0.32c-0.009-2.017,0.114-4.088-0.069-6.098c-0.036-0.389-0.071-1.731,0.59-1.69
	c0.237,0.012,0.219,0.283,0.186,0.447c-0.125,0.657-0.168,1.241-0.166,1.919c0.271-0.395,0.462-0.879,0.821-1.21
	c0.516-0.475,1.702-0.493,2.155,0.088c0.236,0.299,0.274,0.755,0.41,1.107c0.551-0.734,0.161-2.255,0.326-3.161
	C60.423,123.158,57.946,123.163,55.457,123.173z M39.011,131.254c0.666,0.394,1.531,0.199,2.259,0.104
	c-0.044-0.495-0.007-0.975-0.006-1.467c-0.597,0.002-1.217,0.143-1.808,0.097c-0.465-0.031-0.9-0.218-1.355-0.312l0.005,1.464
	l0.565,0.116c0.041-1.096,1.585-0.737,2.367-0.803l0.002,0.679C40.356,131.136,39.694,131.194,39.011,131.254z M40.673,126.902
	c-0.276-0.443-1.108-0.299-1.433-0.014c-0.498,0.438-0.477,1.051-0.464,1.658c0.004,0.222-0.013,0.517,0.184,0.675
	c0.236,0.185,0.667,0.115,0.947,0.11c0.321-0.002,0.596-0.026,0.904-0.116c-0.094-0.489-0.135-0.971-0.117-1.468
	C40.703,127.495,40.817,127.137,40.673,126.902z M40.571,125.943c-0.27-0.876-1.058-0.357-1.693-0.217
	C39.208,126.161,40.06,125.945,40.571,125.943z M70.646,139.026c0.825,0.016,1.648,0.186,2.484,0.216
	c4.39,0.175,8.806,0.071,13.203,0.053l4.516-0.021c0.805-0.004,1.707,0.109,2.48-0.119c-0.771-0.326-1.771-0.22-2.596-0.216
	c-1.42,0.006-2.873-0.012-4.289-0.105c-2.473-0.155-4.966-0.079-7.45-0.067l-11.284,0.045
	C68.542,139.154,69.75,139.008,70.646,139.026z M79.651,133.795c-0.253-0.715-1.204-0.56-1.807-0.444
	C78.17,133.848,79.095,133.725,79.651,133.795z M77.624,134.367c0,0.851-0.423,2.562,0.463,3.046
	c-0.005-1.024,0.006-2.03-0.125-3.048L77.624,134.367z M78.538,137.186c0.604-0.651,0.693-2.485,0.1-3.163
	C78.306,134.921,78.263,136.268,78.538,137.186z M79.544,134.473c-0.037,0.895-0.367,1.832-0.105,2.709l0.229-0.002
	c0.218-0.859,0.36-1.846,0.101-2.707H79.544z M68.595,134.405c0.003,0.938-0.147,2.03,0.124,2.934
	c0.503-0.669,0.217-2.116,0.215-2.937L68.595,134.405z M68.818,133.728l-0.001-0.339c-0.741,0.002-1.546-0.09-2.258,0.119
	C67.121,133.929,68.136,133.731,68.818,133.728z M67.588,137.115h0.339l-0.011-2.819l-0.226,0.001
	C67.437,135.169,67.585,136.211,67.588,137.115z M66.575,137.344c0.517-0.685,0.216-2.203,0.213-3.045l-0.339,0.001
	C66.455,135.273,66.296,136.412,66.575,137.344z M64.319,110.724c-0.107,0.518-0.296,1.23,0.006,1.693
	C64.565,111.852,64.802,111.196,64.319,110.724z M66.462,110.601c-0.565,0.008-0.853,0.068-0.897,0.681
	c0.304-0.121,0.585-0.264,0.9-0.344L66.462,110.601z M68.495,110.703c0.204,0.283,0.397,0.472,0.681,0.676
	C69.329,110.789,69.082,110.544,68.495,110.703z M97.287,113.859c-6.917,0.028-13.847-0.396-20.765-0.37
	c-1.652,0.008-3.317-0.223-4.969-0.082c-0.483,0.038-1.292,0.607-1.565-0.118c-0.271-0.72,0.602-0.537,0.888-0.226
	c0.371-0.511,0.088-1.512,0.109-2.143c0.007-0.257,0.108-0.626-0.086-0.834c-0.261-0.289-0.831-0.095-1.164-0.066
	c0.331,1.044,0.338,2.251-0.777,2.823c-0.05-0.145-0.082-0.277-0.178-0.4c-0.906-1.122-1.307,0.523-1.851,0.976
	c-0.091-0.502-0.02-0.866,0.109-1.357c-0.776,0.029-1.194,0.493-1.804,0.914c-0.112-0.307-0.196-0.579-0.229-0.903
	c-0.23,0.561,0.005,1.314,0.009,1.921c1.164-0.006,2.342,0.114,3.499,0.094c2.625-0.043,5.261-0.195,7.899-0.142
	c1.462,0.028,2.937,0.173,4.403,0.204c1.993,0.04,3.985-0.062,5.98-0.021c3.5,0.07,6.986,0.305,10.497,0.292L97.287,113.859z
	 M97.702,131.685c-0.962,0.007-1.858,0.086-2.821,0.021c-0.415-0.024-0.882,0.056-1.206-0.268c-0.317-0.314-0.266-0.795-0.269-1.202
	l-0.01-2.709c-0.012-2.618,0.161-5.187,0.399-7.789c0.145-1.584,0.478-3.27,1.805-4.299c-0.174,0.793-0.816,1.585-1.118,2.373
	c0.982-0.385,2.448-0.412,2.938,0.782c0.268,0.651,0.12,1.562,0.122,2.256c0.002,0.512,0.158,1.334-0.106,1.789
	c-0.195,0.329-0.557,0.351-0.9,0.358c-0.764,0.021-1.891,0.224-2.482-0.326c-0.287,0.691-0.202,1.999,0.011,2.707
	c0.786-0.635,1.298-0.549,2.257-0.397c0.388,0.063,0.803,0.054,1.059,0.401c0.33,0.436,0.053,1.065,0.097,1.563
	c0.06,0.687,0.278,1.591,0.004,2.255c-0.546,1.323-2.33,0.74-3.288,0.354l0.007,1.693c0.834,0.064,1.646,0.11,2.484,0.101
	c0.277-0.003,0.701,0.048,0.899-0.202c0.248-0.311,0.106-1.008,0.112-1.382c0.008-1.053,0.176-2.091,0.108-3.156
	c-0.249-3.802-0.042-7.694-0.06-11.509c-1.26-0.233-2.562-0.057-3.837-0.103c-2.598-0.103-5.178-0.2-7.787-0.188
	c-4.522,0.019-9.023-0.303-13.543-0.283c-1.952,0.007-3.908,0.13-5.868,0.139c-0.729,0.003-1.7-0.248-1.803,0.683l-0.68-0.446
	c0.074,0.656-0.354,1.842,0.237,2.256c0.019-0.499,0.079-0.892,0.446-1.246l0.012,2.598c0.164-0.399,0.039-0.823,0.156-1.238
	c0.145-0.517,0.802-1.104,1.299-1.248c-0.222,0.909-0.635,1.766-0.785,2.707c-0.207,1.296-0.095,2.745-0.09,4.066
	c0.003,0.525-0.009,1.055,0.009,1.581c0.005,0.21-0.002,0.527,0.197,0.668c0.348,0.244,1.031-0.271,1.383-0.366
	c0.753-0.202,1.429,0.016,2.145,0.247c0.093-0.493-0.01-0.973,0.025-1.469c0.011-0.178,0.066-0.426-0.106-0.549
	c-0.268-0.197-0.776,0.063-1.055,0.13c-0.66,0.158-1.402,0.158-1.896-0.372c-0.667-0.72-0.474-2.681-0.33-3.599
	c0.063-0.394,0.166-0.791,0.523-1.023c0.845-0.544,2.131-0.124,3.035-0.009c-0.028-0.222-0.344-1.624,0.208-1.427
	c0.279,0.1,0.375,0.501,0.44,0.75c0.176,0.694,0.239,1.551,0.088,2.257c-0.083,0.387-0.291,0.737-0.357,1.132
	c-0.149,0.859-0.021,1.832-0.019,2.706c0.004,1.221-0.112,2.516,0.028,3.728c0.117,0.992,0.22,1.914,0.224,2.932
	c0.002,0.43,0.078,0.966-0.19,1.337c-0.278,0.387-0.732,0.355-1.158,0.36c-0.827,0.005-1.655,0.014-2.482,0.012
	c-0.42-0.002-0.83,0.004-0.991-0.456c-0.426-1.205-0.263-2.792-0.268-4.054c-0.004-1.319-0.154-2.638-0.126-3.951
	c0.028-1.354,0.212-2.706,0.207-4.063c-0.262,0.135-0.509,0.254-0.789,0.344l0.077,18.396c0.637-0.003,1.306,0.061,1.918-0.124
	c-0.439-1.216-0.729-2.428-0.439-3.722c0.109-0.48,0.083-0.963,0.538-1.272c0.386-0.263,0.904-0.203,1.347-0.203
	c0.388-0.001,0.773-0.016,1.127,0.172c1.102,0.583,0.737,2.811,0.688,3.884c-0.014,0.316-0.275,0.893-0.09,1.174
	c0.135,0.204,0.452,0.175,0.664,0.178c0.604,0.012,1.198,0.103,1.806,0.104c2.487,0.001,4.972-0.112,7.448-0.142
	c-0.587-0.349-1.506,0.225-1.931-0.258c-0.762-0.858-0.451-2.41-0.455-3.457c0-0.437-0.082-0.944,0.259-1.276
	c0.541-0.528,2.187-0.708,2.7-0.06c0.189,0.238,0.218,0.577,0.265,0.869c0.104,0.647,0.367,1.374,0.302,2.03
	c-0.071,0.696-0.303,1.503-0.574,2.148c0.678,0.198,1.44,0.104,2.144,0.101l3.726-0.014c1.434-0.007,2.858,0.104,4.29,0.093
	c0.757-0.002,1.499-0.147,2.256-0.117c0.761,0.029,1.493,0.219,2.258,0.212c1.097-0.004,2.174-0.234,3.271-0.241
	c-0.004-1.203-0.179-2.406-0.235-3.608C97.561,133.572,97.705,132.625,97.702,131.685z M96.586,119.684
	c-0.52-0.26-1.522-0.06-2.097-0.06c0.002,0.563,0.038,1.134-0.014,1.691c-0.027,0.304-0.159,0.688-0.021,0.983
	c0.2,0.415,1.902,0.396,2.235,0.135c0.194-0.156,0.175-0.45,0.177-0.678C96.877,121.288,97.086,119.938,96.586,119.684z
	 M96.742,118.714c-0.476-0.36-1.302-0.297-1.806,0.005C95.495,119.053,96.178,118.987,96.742,118.714z M96.599,126.748
	c-0.418-0.318-2.034-0.234-2.217,0.346c-0.178,0.562,0.098,1.43,0.148,2.009c0.579,0.073,1.552,0.316,2.097,0.037
	C97.124,128.887,97.012,127.061,96.599,126.748z M96.771,125.71c-0.473-0.355-1.671-0.55-2.031,0.008
	C95.434,125.771,96.095,125.914,96.771,125.71z M68.242,130.683c0.095-0.378,0.255-0.686,0.447-1.021
	c-0.392,0.16-1.671,1.612-1.517,0.34c0.019-0.149,0.038-0.294,0.048-0.444c-0.562,0.003-1.036-0.111-1.58-0.222l0.007,1.691
	l2.484-0.005l1.241,0.216c-0.001-0.355-0.014-0.671-0.118-1.015C68.913,130.492,68.675,130.646,68.242,130.683z M69.138,129.55
	c-0.169-0.08-0.263-0.094-0.451-0.113C68.892,129.579,68.888,129.57,69.138,129.55z M66.53,126.626
	c0.002,0.55-0.217,1.739,0.125,2.193c0.178,0.231,0.566,0.303,0.789,0.51c0.429-0.069,0.811-0.034,1.243-0.005l-0.013-2.708
	C67.935,126.483,67.271,126.53,66.53,126.626z M68.446,125.488l-0.001-0.227c-0.531-0.15-1.047-0.119-1.581,0.009l0.001,0.225
	C67.386,125.647,67.925,125.645,68.446,125.488z M68.642,119.577c-0.268-0.339-1.638-0.275-1.993-0.091
	c-0.414,0.213-0.257,1.005-0.256,1.386c0.001,0.353-0.112,0.99,0.122,1.281c0.261,0.328,1.643,0.28,1.993,0.108
	c0.415-0.21,0.256-1.026,0.255-1.401C68.762,120.507,68.875,119.871,68.642,119.577z M68.189,118.493
	c-0.35-0.184-0.635-0.205-1.017-0.108C67.511,118.635,67.789,118.588,68.189,118.493z M69.431,118.26l0.001,0.45h0.227l-0.002-0.45
	H69.431z M101.343,139.254c1.501,0.137,3.167,0.286,4.628-0.148c-0.459-0.188-0.98-0.087-1.468-0.12
	c-1.097-0.068-2.171-0.09-3.273-0.088c-0.565,0.004-1.21-0.103-1.692,0.232C100.128,139.302,100.734,139.2,101.343,139.254z
	 M104.164,111.909c-1.017-0.003-2.032,0.009-3.047,0.015c-0.324,0-0.902-0.104-1.171,0.122c-0.225,0.184-0.075,0.453,0.174,0.49
	c0.287,0.044,0.593-0.054,0.886-0.029c0.885,0.082,1.698,0.21,2.598,0.196c0.39-0.006,0.985-0.015,1.277-0.322
	C105.286,111.942,104.376,111.914,104.164,111.909z M104.959,113.261c-1.056,0.57-2.876,0.238-4.063,0.242
	c-0.904,0.007-1.699-0.122-1.576,1.023c1.006-0.005,2.046-0.086,3.048,0.006c0.704,0.067,1.329,0.03,2.032,0.005
	c0.2-0.011,0.446,0.063,0.639-0.008C105.578,114.327,105.217,113.513,104.959,113.261z M106.186,127.362
	c-0.12-1.645-0.342-3.312-0.431-4.961c-0.065-1.238,0.145-2.771-0.211-3.951c-0.175,0.426-0.099,0.903-0.107,1.354
	c-0.014,0.606-0.106,1.2-0.104,1.809l0.025,6.433l0.011,2.259c0.002,0.315,0.054,0.712-0.112,0.999
	c-0.183,0.317-0.569,0.408-0.897,0.501c-0.869,0.241-1.604,0.113-2.481,0.093c-0.428-0.005-0.983,0.079-1.24-0.35
	c-0.202-0.333-0.121-0.851-0.123-1.222c-0.002-0.714-0.065-1.439-0.15-2.146c-0.349-2.784-0.558-5.54-0.569-8.35
	c-0.004-1.507,0.339-3.063,1.792-3.731c-0.007,0.825-0.77,1.353-0.556,2.147c1.076-0.397,2.169-0.619,3.27-0.24
	c-0.001-0.465,0.002-0.9,0.11-1.354h0.225c0.183,0.525,0.319,1.385,0.798,1.691c0.131-1.07-0.112-2.096-0.126-3.162
	c-2.029,0.008-4.063-0.048-6.091-0.088c0.004,1.252,0.374,2.447,0.35,3.723c-0.092,4.569-0.566,9.09-0.656,13.659
	c-0.027,1.424-0.398,2.854-0.395,4.292c0,0.373-0.127,1.085,0.121,1.397c0.279,0.347,1.186,0.179,1.578,0.175l4.628-0.02
	c0.467-0.003,1.393,0.172,1.623-0.36c0.26-0.605,0.057-1.614-0.023-2.243c-0.135-1.111-0.179-2.267-0.26-3.387
	C106.057,130.683,106.305,129.003,106.186,127.362z M104.256,122.789c-0.236,0.235-0.625,0.163-0.89,0.364
	c-0.248,0.189-0.405,0.513-0.737,0.576c-0.507,0.097-0.795-0.29-1.352-0.072c0.058-0.502,0.016-0.964-0.006-1.466
	c-0.388,0.287-0.329,0.79-0.33,1.242c-0.005,1.017,0.006,2.032,0.011,3.046h0.227c0.051-1.191,0.941-2.371,2.251-1.966
	c0.438,0.135,0.733,0.504,1.132,0.71l-0.014-3.048c0-0.513,0.083-1.104-0.118-1.575
	C104.429,121.145,104.662,122.375,104.256,122.789z M102.953,119.298c-1.678-0.147-1.265,1.732-1.454,2.779
	c0.774,0.227,1.675,0.107,2.481,0.104l-0.011-2.596C103.637,119.497,103.299,119.328,102.953,119.298z M103.627,118.682
	c-0.505-0.207-1.148-0.106-1.691-0.103C102.438,118.788,103.083,118.685,103.627,118.682z M101.953,123.319
	c0.179-0.079,0.201-0.094,0.338-0.229l-0.226-0.11C101.954,123.146,101.953,123.119,101.953,123.319z M103.818,126.586
	c-0.415-0.324-1.545-0.124-2.078-0.218c-0.241,0.838-0.103,1.833-0.099,2.708l2.371-0.013c-0.006-0.6,0.003-1.199-0.011-1.804
	C103.997,127.036,104.016,126.741,103.818,126.586z M103.997,125.681c-0.448-0.878-1.842-0.701-2.258,0.122
	C102.478,125.8,103.285,125.894,103.997,125.681z M100.962,129.188c0.002,0.478-0.165,1.371,0.189,1.745
	c0.473,0.5,1.804,0.317,2.413,0.231c0.244-0.035,0.621-0.038,0.787-0.25c0.263-0.336,0.105-1.036-0.004-1.401
	C103.123,129.75,102.089,129.674,100.962,129.188z M106.715,128.376l-0.226,0.001l0.003,1.13l0.228-0.002L106.715,128.376z
	 M132.829,139.216l2.937-0.013c1.883-0.01,3.757,0.141,5.642,0.088c1.583-0.045,3.146-0.236,4.739-0.244v-0.338
	c-4.165,0.021-8.37-0.144-12.526,0.057c-0.77,0.038-1.49,0.324-2.257,0.343C131.81,139.296,132.348,139.216,132.829,139.216z
	 M126.734,139.133c0.426,0.02,0.819,0.174,1.244,0.204c0.817,0.063,1.66,0.004,2.483,0l-0.003-0.561
	c-1.781,0.008-3.539-0.193-5.308-0.204c-0.599-0.006-1.523-0.063-1.917,0.457C124.405,139.175,125.562,139.081,126.734,139.133z
	 M130.54,131.212c0.216-0.334,0.16-0.548-0.003-0.904h-0.229C130.355,130.629,130.425,130.911,130.54,131.212z M125.591,134.73
	c0.021,0.213,0.051,0.361,0.115,0.566c1.404-0.044,0.614,1.785,0.915,2.701c0.778-0.238,0.544-1.141,0.554-1.808
	c0.011-0.553,0.122-0.844,0.677-0.566c0.13-0.447,0.171-0.861-0.118-1.24c-0.062,0.204-0.09,0.35-0.112,0.565
	C126.899,134.952,126.267,135.007,125.591,134.73z M126.263,133.824c-0.556-0.177-0.671,0.355-0.56,0.795
	C125.867,134.299,125.979,134.061,126.263,133.824z M123.229,138.015c0.59-0.044,0.876-0.299,0.899-0.907
	c0.021-0.554,0.031-1.139-0.024-1.69c-0.049-0.474-0.196-1.002-0.018-1.464c0.144-0.363,0.499-0.626,0.751-0.916
	c0.301-0.341,0.571-0.865,0.978-1.093c1.129-0.624,2.484,0.138,3.102,1.084c0.379,0.572,0.585,1.123,0.685,1.8
	c0.129,0.867,0.149,1.831,0.172,2.708c0.833-1.34,0.358-3.293,0.22-4.742c-0.073-0.749-0.012-1.41-0.249-2.142
	c-0.259,0.078-0.313,0.109-0.447,0.339c-1.137-0.789-2.107-1.764-3.617-1.212c-0.46,0.171-0.803,0.514-1.239,0.721
	c-0.393,0.183-0.551-0.048-0.679-0.389c-0.485,0.318-0.519,1.575-0.561,2.147C123.067,134.194,123.222,136.082,123.229,138.015z
	 M129.849,128.469c-0.382-0.427-0.624,0.502-0.673,0.718c0.274,0.081,0.509,0.107,0.791,0.108
	C129.966,129.056,130.022,128.663,129.849,128.469z M125.754,120.059l0.11-0.114c-0.133-0.581-0.442-1.317-0.155-1.899
	c0.311-0.647,1.376-0.544,1.746-0.008c0.295,0.43,0.104,1.071,0.101,1.562c-0.331,0.113-0.393,0.222-0.448,0.567
	c1.161-0.096,1.42-2.484,0.215-2.817c-0.545-0.147-1.648-0.306-2.075,0.173c-0.228,0.254-0.177,0.646-0.179,0.959
	C125.071,119.172,125.006,119.794,125.754,120.059z M126.908,119.114c0.617-0.63-0.434-1.031-0.861-0.634
	C125.668,118.832,126.495,119.531,126.908,119.114z M127.906,121.96c-0.325-0.212-0.719-0.548-1.132-0.535
	c-0.322,0.009-0.612,0.253-0.881,0.405c-0.853,0.494-1.368,0.94-1.366,1.958l1.919-0.008c0.551-0.003,1.856,0.23,2.303-0.128
	C129.444,123.096,128.301,122.216,127.906,121.96z M124.645,124.578c-0.178,0.601-0.034,1.198-0.122,1.806
	c-0.064,0.448-0.363,0.796-0.431,1.245c0.42,0.206,0.587,0.445,0.682,0.898c0.681-0.528,0.015-2.199-0.071-2.934
	C124.661,125.241,124.764,124.909,124.645,124.578z M128.382,128.06c0.751-0.709,0.56-1.312,0.556-2.26
	c-0.002-0.323,0.078-0.792-0.072-1.09c-0.263-0.521-1.14-0.251-1.287,0.19l0.901-0.003
	C128.464,125.97,128.059,126.989,128.382,128.06z M127.586,127.048l-1.916,0.009l0.008,1.92l1.917-0.01L127.586,127.048z
	 M127.36,126.262c0.061-0.207,0.089-0.354,0.109-0.564c-0.641-0.116-1.186-0.093-1.805,0.118l0.003,0.227
	C126.236,126.312,126.763,126.148,127.36,126.262z M125.772,124.909c-0.065-0.304-0.143-0.313-0.451-0.334
	C125.46,124.806,125.512,124.838,125.772,124.909z M123.983,128.417c-0.855-0.129-0.825,0.402-0.447,1.018
	C123.81,129.132,123.915,128.819,123.983,128.417z M112.291,139.077c2.675-0.014,5.47,0.199,8.123-0.148
	c-0.959-0.409-2.248-0.266-3.273-0.336c-2.376-0.15-4.759-0.162-7.109,0.229c-0.422,0.071-0.828,0.033-1.241,0.154
	C109.735,139.368,111.266,139.079,112.291,139.077z M121.184,133.848c-0.333-0.509-1.477-0.506-1.804,0.007L121.184,133.848z
	 M120.294,137.009c0.476-0.63,0.22-1.933,0.216-2.705l-0.34,0.001C120.172,135.175,120.042,136.173,120.294,137.009z
	 M121.198,137.121h0.227c0.2-0.864,0.154-1.841-0.012-2.709l-0.227,0.003C120.961,135.186,120.967,136.349,121.198,137.121z
	 M119.606,134.419h-0.225c-0.198,0.846-0.222,1.905,0.122,2.708C119.964,136.515,119.78,135.137,119.606,134.419z M115.005,113.556
	l-5.076,0.02c-0.603,0.003-1.597-0.177-2.135,0.13c-0.322,0.186-0.589,0.741-0.103,0.91c0.534,0.182,1.441-0.015,2.014-0.02
	l4.628-0.019c0.523-0.003,1.662,0.204,2.061-0.206C117.225,113.516,115.361,113.555,115.005,113.556z M116.704,115.131l-9.481,0.039
	c-0.018,0.48-0.197,0.948,0.346,1.126c0.183-0.229,0.296-0.326,0.563-0.451c0,0.75-0.317,1.397-0.329,2.144
	c1.074-0.007,1.991-0.061,3.049,0.213c-0.002-0.65-0.161-1.434,0.329-1.921c0.201,1.52,0.546,2.972,0.584,4.512
	c0.225-0.426,0.205-0.885,0.269-1.355c0.078-0.588,0.235-1.124,0.396-1.693h0.227c0.073,0.306,0.107,0.586,0.116,0.902
	c0.93-1.468,2.434-0.784,3.835-0.469c-0.073-0.453,0.046-0.792,0.095-1.24C116.759,116.346,116.707,115.726,116.704,115.131z
	 M110.093,126.444l-1.806,0.007l0.125,2.597c0.415-0.011,1.287,0.035,1.621-0.237C110.524,128.417,110.136,126.978,110.093,126.444z
	 M110.014,125.318c-0.491-0.409-1.452-0.091-1.616,0.458l0.677-0.002c0.149-0.004,0.302,0.003,0.45-0.008
	C109.707,125.756,110.381,125.621,110.014,125.318z M107.622,129.501c-0.093,0.396-0.272,1.16,0.011,1.514
	c0.175,0.221,0.536,0.18,0.785,0.176c0.565,0.004,1.129,0,1.691-0.004c0.226-0.003,0.532,0.028,0.722-0.12
	c0.388-0.311,0.175-1.468,0.173-1.919C109.886,129.644,108.852,129.724,107.622,129.501z M107.496,126.118l0.226-0.003
	c0.125-0.804,0.943-2.007,1.913-1.708c0.567,0.175,0.879,0.723,1.357,1.019l-0.012-2.596c-0.001-0.449,0.05-0.874-0.229-1.241
	l-0.221,1.578c-0.786-0.281-1.116-0.117-1.35,0.686c-0.329-0.271-0.425-0.478-0.457-0.9c-0.44,0.076-0.541,0.262-0.673,0.681
	c-0.208-0.372-0.257-0.754-0.681-0.899C107.374,123.855,107.374,124.996,107.496,126.118z M110.109,119.497
	c-0.238-0.269-0.622-0.271-0.949-0.272c-0.237,0.001-0.535-0.021-0.742,0.123c-0.222,0.149-0.252,0.426-0.267,0.675
	c-0.032,0.544-0.207,1.784,0.266,2.158c0.407,0.319,1.165,0.229,1.659,0.317c0.195-0.682,0.2-1.441,0.211-2.146
	C110.291,120.061,110.312,119.728,110.109,119.497z M110.173,118.654c-0.503-0.375-1.313-0.218-1.92-0.214
	C108.605,118.979,109.622,118.822,110.173,118.654z M107.578,118.555l-0.107,1.242l0.225-0.003
	C107.693,119.377,107.742,118.938,107.578,118.555z M107.479,121.604h-0.228l0.116,0.45
	C107.443,121.884,107.458,121.792,107.479,121.604z M115.704,119.619c-0.228-0.271-0.711-0.187-1.012-0.144
	c-0.266,0.035-0.701,0.018-0.883,0.25c-0.318,0.402-0.146,1.475-0.124,1.963c0.011,0.206,0.016,0.448,0.183,0.599
	c0.263,0.238,0.96,0.186,1.284,0.136c0.975-0.156,0.675-1.126,0.673-1.871C115.822,120.28,115.894,119.851,115.704,119.619z
	 M115.589,118.634c-0.416-0.174-0.904-0.108-1.354-0.106C114.654,118.699,115.14,118.637,115.589,118.634z M115.719,123.558
	c-0.679,0.132-1.253-0.286-1.813-0.552c-0.366-0.174-0.747-0.232-0.924-0.646c-0.238-0.566,0.035-1.229-0.203-1.793l0.128,4.284
	c0.463-0.068,0.891-0.32,1.354-0.363c0.68-0.06,1.479,0.223,2.145,0.351c0.181-0.605,0.309-1.289,0.331-1.922
	C116.359,123.063,116.115,123.48,115.719,123.558z M112.796,124.964l0.008,2.037C113.092,126.448,113.035,125.528,112.796,124.964z
	 M115.961,126.533c-0.445-0.134-1.811-0.343-2.141,0.075c-0.148,0.192-0.112,0.499-0.112,0.723l0.006,1.695
	c0.739-0.003,1.547,0.087,2.258-0.124C115.821,128.109,115.816,127.329,115.961,126.533z M115.621,125.631
	c-0.472-0.525-1.412-0.674-1.808,0.008C114.416,125.636,115.025,125.718,115.621,125.631z M116.199,129.465
	c-0.675,0.131-1.457,0.21-2.143,0.098c-0.508-0.083-0.827-0.41-1.355-0.308c0.121,0.642,0.115,1.269,0.118,1.921l3.5-0.016
	C116.273,130.591,116.203,130.041,116.199,129.465z M116.621,122.016c-0.054,0.269-0.059,0.411,0.003,0.678
	C116.789,122.423,116.789,122.287,116.621,122.016z M117.7,110.046l-0.226,0.002l0.004,1.129
	C117.809,110.824,117.832,110.501,117.7,110.046z M118.122,115.8c0.024,0.204,0.097,0.38,0.168,0.566l0.677-0.118
	c-0.1,0.96-0.565,1.712-0.44,2.712h0.224c0.053-0.982,1.224-1.732,2.138-1.17c0.837,0.516,0.989,1.318,1.255,2.17
	c0.198-0.478,0.108-1.069,0.106-1.582c-0.003-0.837,0.062-1.65,0.1-2.482c0.014-0.33,0.198-1.097-0.169-1.286
	c-0.385-0.203-1.098-0.063-1.527-0.059C119.688,114.554,117.954,114.311,118.122,115.8z M122.316,129.779
	c0.104-1.187,0.359-2.834-0.15-3.95c-0.176,0.975,0.183,2.251-0.184,3.158c-0.384,0.956-2.551,0.672-3.3,0.358
	c-0.096,0.411-0.285,1.254,0.011,1.625c0.174,0.219,0.537,0.176,0.788,0.179c0.603,0,1.205-0.009,1.805-0.012
	c0.254,0,0.624,0.052,0.837-0.119C122.426,130.775,122.284,130.122,122.316,129.779z M118.948,122.553
	c0.086-0.208,0.428-0.208,0.606-0.245c0.595-0.123,1.229-0.141,1.805-0.311c-0.112-0.585,0.109-1.612-0.163-2.109
	c-0.264-0.484-1.932-0.397-2.15,0.103c-0.159,0.372-0.011,0.825-0.095,1.214c-0.104,0.48-0.322,0.857-0.354,1.368
	c-0.037,0.597,0.091,1.204,0.053,1.806c-0.041,0.664-0.177,1.271,0.019,1.921c0.213-0.407,0.117-0.959,0.398-1.319
	c0.801-1.012,2.386-0.201,3.209,0.285l-0.018-4.064c-0.338,0.45-0.206,1.145-0.713,1.507c-0.423,0.299-1.592,0.236-2.1,0.195
	C119.289,122.886,118.835,122.823,118.948,122.553z M121.12,118.613c-0.449-0.188-0.986-0.108-1.467-0.108
	C120.101,118.69,120.638,118.613,121.12,118.613z M121.332,126.75c-0.233-0.467-1.654-0.55-2.04-0.244
	c-0.398,0.317-0.322,1.242-0.354,1.703c-0.016,0.198-0.021,0.412,0.146,0.546c0.286,0.228,0.94,0.228,1.288,0.237
	c0.41,0.011,0.755-0.069,1.129-0.226C121.354,128.161,121.602,127.286,121.332,126.75z M121.264,125.72l-0.004-0.563
	c-0.589,0.028-1.104,0.077-1.691,0.006l-0.227,0.453C119.958,125.794,120.627,125.724,121.264,125.72z M118.823,109.027
	c0.447,0.683,2.473,0.644,2.936-0.013L118.823,109.027z M118.829,110.491v0.228c0.267-0.055,0.285-0.072,0.338-0.341l-0.226,0.003
	L118.829,110.491z M121.425,110.369c0.196,0.452,0.445,0.714,0.906,0.899C122.438,110.534,122.117,110.375,121.425,110.369z
	 M120.866,111.841c-0.031,0.326-0.345,1.841-0.942,1.479c-0.433-0.261,0.045-1.148,0.152-1.473
	c-0.273,0.002-0.628-0.042-0.867,0.117c-0.409,0.274-0.658,1.449-0.706,1.92c1.272-0.005,2.845,0.234,4.063-0.128
	C122.233,112.954,121.804,111.98,120.866,111.841z M122.523,131.767c-0.262-0.349-0.919,0.013-1.234,0.088
	c-1.209,0.275-2.22-0.246-3.387-0.252c-0.002-0.512-0.123-1.005-0.132-1.512c-0.036-2.087,0.107-4.179,0.101-6.275
	c-0.006-1.023,0.107-2.547-0.58-3.383c0.001,1.513-0.258,3.011-0.316,4.515c-0.049,1.259,0.146,2.466,0.031,3.726
	c-0.076,0.823,0.263,2.074-0.173,2.809c-0.292,0.486-0.856,0.157-1.303,0.137c-0.911-0.042-2.677,0.784-3.264-0.343
	c-0.271-0.514,0.025-1.569,0.076-2.13c0.127-1.37-0.16-2.709-0.109-4.062h-0.227c-0.014,0.907-0.174,1.806-0.21,2.708
	c-0.03,0.791,0.077,1.593-0.096,2.369c-0.111,0.503-0.207,1.298-0.696,1.582c-0.643,0.373-1.967,0.125-2.696,0.128
	c-0.277,0-0.799-0.088-0.982,0.186c-0.132,0.19-0.067,0.5-0.087,0.721c-0.045,0.642-0.048,1.277-0.045,1.919
	c0.002,0.788-0.043,1.589,0.019,2.369c0.023,0.291,0.061,0.704,0.3,0.907c0.311,0.257,0.8,0.179,1.162,0.137
	c0.67-0.076,1.356-0.091,2.029-0.145c1.723-0.126,3.459-0.293,5.191-0.257c0.979,0.022,1.94,0.217,2.937,0.213
	c-0.003-0.83-0.12-1.647-0.124-2.482c-0.002-0.623-0.085-1.303,0.01-1.917c0.136-0.896,1.893-1.227,2.539-0.702
	c0.286,0.234,0.332,0.691,0.444,1.028c0.318,0.954,0.864,2.857,0.019,3.688c-0.423,0.413-1.219,0.268-1.76,0.268v0.225
	c0.551-0.003,1.844,0.236,2.286-0.125c0.261-0.211,0.263-0.817,0.285-1.127c0.027-0.416-0.085-0.824-0.098-1.239
	c-0.021-0.805,0.065-1.576,0.098-2.374C122.547,132.826,122.733,132.047,122.523,131.767z M123.133,115.196l0.011,3.141
	C123.635,116.954,123.634,116.575,123.133,115.196z M124.784,104.147l0.004,1.017c0.511-0.155,0.68-0.516,0.788-1.019
	L124.784,104.147z M126.134,102.899c0.669,0.318,1.964,0.427,2.595-0.012C128.022,102.685,126.768,102.464,126.134,102.899z
	 M127.605,104.023c0.027,0.566,0.402,0.819,0.906,1.013C128.731,104.25,128.284,104.147,127.605,104.023z M127.386,105.523
	c-0.225-0.157-0.49-0.454-0.785-0.457c-0.271,0-0.491,0.279-0.695,0.418c-0.686,0.464-1.387,1.313-1.444,2.168l4.401-0.02
	C128.804,106.678,128.125,106.048,127.386,105.523z M125.145,109.114c0.467,0.315,0.921,0.142,1.447,0.097
	c0.565-0.04,1.146,0.004,1.714,0.001C127.581,108.667,125.968,108.864,125.145,109.114z M129.093,110.162
	c-0.232-0.362-0.856-0.373-1.238-0.381c-1.155-0.028-2.615-0.209-3.723,0.127c0.169,0.887,0.133,1.804,0.123,2.706
	c0,0.293-0.141,0.804,0.036,1.059c0.198,0.291,0.802,0.177,1.097,0.179c0.907-0.003,1.805,0.107,2.71,0.104
	c0.279,0,0.816,0.086,1.001-0.187c0.221-0.321,0.013-1.237,0.01-1.624C129.105,111.654,129.358,110.568,129.093,110.162z
	 M129.928,120.156c-0.646-0.864-0.881-2.093-0.781-3.157c0.056-0.625,0.32-1.771-0.143-2.301c-0.344-0.4-1.553-0.177-2.032-0.173
	c-0.679,0.001-1.354,0-2.032,0.007c-0.25,0.003-0.611-0.038-0.786,0.185c-0.217,0.276-0.112,0.847-0.111,1.172
	c0.003,0.925,0.098,1.905-0.009,2.821c-0.09,0.771-0.378,1.393-1.216,1.137l0.02,4.966c0.003,0.87-0.128,1.869,0.125,2.705
	c0.543-0.33,0.654-0.971,0.669-1.58c0.011-0.597,0.034-1.214-0.026-1.808c-0.054-0.539-0.223-1.163-0.005-1.692
	c0.381-0.919,1.655-0.539,1.816-1.59c-0.353-0.053-0.675-0.132-0.869-0.461c-0.194-0.326-0.151-0.746-0.154-1.111
	c-0.002-0.883-0.152-2.081,0.514-2.791c0.457-0.486,1.468-0.23,2.07-0.272c0.437-0.03,0.822-0.225,1.235,0.019
	c0.954,0.563,0.537,2.247,0.48,3.14c-0.022,0.347,0.069,0.777-0.075,1.102c-0.118,0.271-0.549,0.335-0.601,0.622
	c-0.048,0.265,0.252,0.388,0.45,0.461c0.43,0.16,0.928,0.155,1.125,0.641c0.639,1.563-0.999,4.42,0.933,5.406
	c0.24-0.839,0.103-1.838,0.097-2.71l-0.021-5.192C130.281,119.79,130.145,119.891,129.928,120.156z M129.997,109.771l0.009,1.465
	C130.4,110.78,130.441,110.2,129.997,109.771z M130.705,116.652c0.499-0.139,0.852-0.458,1.238-0.796
	c0.057,0.653-0.449,0.935-0.737,1.471c-0.176,0.333-0.207,0.756-0.205,1.129c0.002,0.941,0.158,1.883,0.174,2.821
	c0.052,3.279-0.089,6.544-0.073,9.82l2.818-0.015c0.299,0,0.813,0.088,1.059-0.122c0.315-0.268,0.048-1.496,0.096-1.913
	c0.111-0.97-0.019-1.86-0.043-2.821c-0.032-1.276-0.011-2.561-0.018-3.838c-0.793,0.43-1.35,0.457-2.255,0.462
	c-0.342,0.003-0.796,0.068-1.071-0.176c-0.342-0.306-0.285-0.876-0.288-1.286c-0.003-0.494,0.079-0.975,0.101-1.465
	c0.03-0.792-0.134-1.564,0.673-2.025c0.812-0.465,1.907,0.123,2.709,0.318c-0.003-1.181-0.067-2.346,0.211-3.502
	c-0.83-0.309-1.72-0.219-2.595-0.215c-0.392,0.002-0.865-0.06-1.238,0.088C130.365,114.947,130.343,115.93,130.705,116.652z
	 M133.987,119.641c-0.266-0.334-1.632-0.312-1.831,0.09c-0.33,0.656-0.076,1.944-0.073,2.673l2.034-0.008l-0.01-1.918
	C134.104,120.224,134.157,119.853,133.987,119.641z M134.097,118.557c-0.501-0.38-1.311-0.22-1.919-0.216v0.336
	C132.818,118.677,133.485,118.74,134.097,118.557z M131.137,111.12c0.438-0.156,0.656-0.343,0.784-0.794
	C131.314,110.337,130.951,110.448,131.137,111.12z M131.461,109.087c0.632,0.429,2.342,0.565,2.824-0.124
	C133.38,108.966,132.332,108.825,131.461,109.087z M134.403,110.315h-0.229l0.004,0.564l0.34-0.001
	C134.498,110.669,134.469,110.519,134.403,110.315z M133.722,111.707c-0.217-0.168-0.485-0.45-0.771-0.477
	c-0.281-0.026-0.497,0.247-0.677,0.422c-0.424,0.408-1.729,1.318-1.498,2.029c0.116,0.362,0.76,0.263,1.045,0.263
	c1.082-0.007,2.331,0.165,3.384-0.016C134.942,113.06,134.439,112.269,133.722,111.707z M145.928,113.769
	c-3.085,0.015-6.176,0.005-9.253,0.151c0.796,0.419,1.945,0.214,2.824,0.211c1.047-0.004,2.115,0.097,3.159,0.08
	c0.386-0.006,0.744-0.167,1.128-0.199c0.706-0.061,1.436-0.016,2.145-0.021L145.928,113.769z M146.243,136.34
	c0.002-1.091,0.044-2.191-0.088-3.274c-0.048-0.385,0.076-0.95-0.104-1.305c-0.221-0.424-0.832-0.143-1.175-0.078
	c-0.776,0.148-2.404,0.376-2.936-0.441c-0.19-0.294-0.116-0.759-0.119-1.09l-0.009-2.485l-0.034-8.128
	c-0.008-1.498-0.2-2.822,1.34-3.617c-0.317,0.597-0.392,1.472-0.446,2.147c0.907-0.387,2.683-0.745,3.208,0.462
	c0.245,0.566,0.073,1.51,0.076,2.119c0.003,0.519,0.185,1.458-0.171,1.885c-0.211,0.252-0.534,0.26-0.836,0.264
	c-0.679,0.018-1.818,0.229-2.308-0.344c-0.407-0.479-0.292-1.203-0.295-1.787c-0.293,0.387-0.248,0.884-0.188,1.355
	c0.12,1.008,0.029,2.199,0.316,3.156c0.4-0.253,1.095-0.843,1.581-0.841c0.324,0.005,0.61,0.275,0.901,0.394
	c0.347,0.14,0.704,0.193,0.901,0.553c0.277,0.501,0.122,1.357,0.124,1.911c0.002,0.58,0.167,1.432-0.252,1.895
	c-0.781,0.864-2.203,0.569-3.125,0.264c-0.019,0.451-0.342,1.458,0.077,1.784c0.218,0.176,0.577,0.134,0.837,0.134
	c0.612,0,1.2-0.051,1.804-0.154c0.307-0.047,0.655-0.095,0.752-0.438c0.122-0.41,0.014-0.911,0.04-1.337
	c0.101-1.563,0.048-3.068-0.023-4.629c-0.058-1.138,0.095-2.251,0.091-3.385c-0.012-2.263-0.133-4.51-0.142-6.773l-6.771,0.028
	l-1.92,0.009c-0.265,0.003-0.62-0.049-0.865,0.074c-0.453,0.223-0.481,1.192-0.483,1.626c0.644,0.073,0.963-0.05,1.468-0.456
	c0.029,1.05-0.686,2.117-0.854,3.163c-0.293,1.829-0.021,3.902-0.013,5.758c0.004,1.068-0.181,2.355,0.126,3.385
	c0.372-0.904-0.147-2.013,0.217-2.928c0.187-0.474,0.59-0.418,1.01-0.505c0.303-0.06,0.589-0.243,0.9-0.247
	c0.306-0.004,0.538,0.199,0.814,0.298c0.315,0.111,0.668,0.143,0.994,0.203c-0.005-0.977,0.058-1.969-0.123-2.935
	c-0.105,0.229-0.15,0.53-0.372,0.678c-0.48,0.315-1.555,0.133-2.108,0.123c-0.249-0.005-0.52,0.007-0.711-0.176
	c-0.274-0.26-0.298-0.713-0.31-1.06c-0.026-0.84,0.061-1.65,0.097-2.483c0.023-0.474-0.002-0.93,0.462-1.199
	c0.963-0.557,1.883,0.116,2.813,0.396c0.047-0.232-0.125-1.612,0.35-1.496c0.267,0.063,0.208,0.625,0.208,0.813
	c0.012,0.827,0.008,1.656,0.012,2.484c0.011,2.486,0.137,4.958,0.147,7.448c0.002,0.979,0.248,2.339-0.051,3.271
	c-0.27,0.824-0.953,0.623-1.629,0.705c-0.746,0.093-1.376,0.291-2.142,0.14c-0.326-0.065-0.817-0.104-1.014-0.407
	c-0.348-0.523-0.125-1.723-0.127-2.333l-0.024-5.871c-0.004-0.713,0.318-2.33-0.35-2.705c-0.264,0.878-0.219,1.802-0.215,2.708
	c0.008,1.796,0.202,3.634,0.129,5.416c-0.028,0.726,0.144,2.392-0.457,2.878c-0.352,0.286-0.911,0.178-1.332,0.178l-3.271,0.014
	c0.212,1.633,0.128,3.215,0.134,4.854c0.003,0.409-0.176,1.403,0.188,1.691c0.26,0.201,0.758,0.111,1.062,0.111
	c0.898-0.007,1.815,0.044,2.708-0.081c1.272-0.17,2.565-0.004,3.836,0.048c1.387,0.054,2.789-0.009,4.176-0.014
	c0.828-0.003,1.659,0.005,2.484-0.009c0.345-0.007,0.782,0,0.945-0.368C146.359,137.382,146.243,136.768,146.243,136.34z
	 M142.523,118.445c0.006-0.005,0.015-0.122-0.036-0.075C142.483,118.378,142.476,118.499,142.523,118.445z M142.983,122.001
	c0.212,0.488,1.739,0.536,2.122,0.233c0.196-0.157,0.175-0.454,0.178-0.68c0.004-0.47,0.217-1.816-0.282-2.073
	c-0.573-0.287-1.604-0.025-2.211,0.054c0.011,0.455,0.104,0.899,0.121,1.356C142.92,121.235,142.841,121.68,142.983,122.001z
	 M145.158,118.511c-0.521-0.392-1.397-0.219-2.031-0.216C143.533,118.933,144.559,118.803,145.158,118.511z M145.011,126.591
	c-0.422-0.413-1.452-0.126-1.965-0.058l-0.099,2.37c0.774,0.095,1.48,0.139,2.253-0.009
	C145.199,128.333,145.437,127.016,145.011,126.591z M145.186,125.508c-0.546-0.473-1.346-0.334-2.03-0.33v0.339
	C143.85,125.567,144.51,125.712,145.186,125.508z M139.677,129.791c-0.995,0.155-2.063-0.392-2.939-0.751
	c0,0.406-0.228,1.657,0.081,1.919c0.205,0.168,0.585,0.113,0.833,0.113c0.714-0.002,1.428,0.003,2.143-0.01
	c0.261-0.006,0.62,0.015,0.808-0.201c0.269-0.307,0.091-1.111,0.089-1.5C140.354,129.502,140.037,129.737,139.677,129.791z
	 M140.677,126.883l-0.003-0.677h-0.225l0.004,0.679L140.677,126.883z M139.592,126.437c-0.234-0.183-0.669-0.115-0.945-0.112
	c-0.271,0-0.707-0.061-0.9,0.185c-0.147,0.191-0.111,0.499-0.111,0.725l0.008,1.804c0.466-0.021,1.608,0.142,1.963-0.138
	c0.372-0.297,0.19-1.47,0.171-1.9C139.765,126.804,139.765,126.569,139.592,126.437z M139.66,125.418
	c-0.589-0.248-1.198-0.156-1.81-0.103v0.225C138.492,125.542,139.058,125.707,139.66,125.418z M137.797,119.672
	c-0.385,0.318-0.207,1.468-0.184,1.917c0.008,0.2,0.012,0.444,0.179,0.589c0.234,0.197,0.673,0.085,0.951,0.089
	c0.256,0.007,0.616,0.106,0.834-0.086c0.261-0.232,0.175-0.741,0.174-1.052c-0.002-0.381,0.104-0.983-0.12-1.316
	C139.381,119.443,138.132,119.403,137.797,119.672z M139.63,118.31l-1.47,0.007v0.335C138.679,118.65,139.32,118.785,139.63,118.31z
	 M152.692,111.714c-0.928-0.078-1.892,0.003-2.82,0.008c-0.451,0.003-1.037-0.092-1.462,0.089c-0.271,0.117-0.519,0.444-0.19,0.658
	c0.289,0.191,0.756,0.189,1.091,0.243c0.918,0.146,1.903,0.214,2.822,0.096c0.321-0.04,0.733-0.073,0.995-0.282
	C153.634,112.128,153.137,111.754,152.692,111.714z M152.021,113.744c-1.135,0.005-2.517-0.201-3.611,0.129
	c0.508,0.206,1.152,0.106,1.693,0.103l3.385-0.014C153.073,113.649,152.528,113.744,152.021,113.744z M139.341,130.838
	c0.051-0.247,0.123-0.448,0.225-0.677l0.336-0.001C139.819,130.546,139.727,130.714,139.341,130.838z M138.325,130.728
	c0.088-0.432,0.214-0.633,0.674-0.564C138.803,130.458,138.667,130.617,138.325,130.728z M137.31,130.73
	c0.2-0.361,0.386-0.563,0.786-0.68C138.023,130.546,137.827,130.804,137.31,130.73z M145.46,137.681
	c-0.603,0.101-1.303,0.038-1.915,0.022c-0.237-0.007-0.508-0.007-0.685-0.191c-0.427-0.444-0.337-1.277-0.339-1.836
	c-0.001-0.742-0.274-2.105,0.354-2.647c0.296-0.261,0.729-0.301,1.104-0.353c0.576-0.086,1.691,0.011,1.967,0.641
	c0.266,0.621,0.072,1.675,0.074,2.345C146.022,136.276,146.293,137.539,145.46,137.681z M144.559,136.795
	c-0.004-0.788,0.159-1.666-0.459-2.253C143.931,135.124,143.897,136.568,144.559,136.795z M143.316,137.028
	c0.204-0.692,0.22-1.576-0.01-2.258l-0.335,0.111C143.083,135.646,142.686,136.448,143.316,137.028z M145.332,133.521
	c-0.671,0.002-2.081-0.27-2.48,0.35l2.481-0.013L145.332,133.521z M145.112,134.651c-0.204,0.712-0.108,1.517-0.104,2.257
	C145.779,136.648,145.52,135.166,145.112,134.651z M145.146,115.803c0.103,0.377,0.1,0.554-0.223,0.792
	c-0.087-0.313-0.087-0.479-0.003-0.792H145.146z M139.819,137.736c-0.562,0.086-2.106,0.23-2.521-0.178
	c-0.701-0.691-0.417-2.216-0.409-3.099c0.005-0.369-0.073-0.791,0.162-1.106c0.294-0.396,0.828-0.481,1.281-0.547
	c0.575-0.076,1.752-0.005,2.1,0.556c0.342,0.552,0.183,1.584,0.166,2.21C140.588,136.209,140.646,137.611,139.819,137.736z
	 M139.14,136.934c-0.003-0.627,0.324-2.146-0.347-2.367c0.004,0.8-0.007,1.573-0.104,2.369L139.14,136.934z M137.786,137.052
	c0.403-0.537,0.351-1.766,0.104-2.369h-0.226C137.667,135.452,137.565,136.307,137.786,137.052z M139.692,133.657
	c-0.67-0.195-1.471-0.154-2.145,0.01v0.227c0.679,0.072,1.481,0.149,2.145-0.011V133.657z M139.808,134.673l-0.224,0.003
	l0.011,2.258C140.156,136.519,139.991,135.28,139.808,134.673z M134.172,137.706c-0.589,0.166-1.417,0.067-2.025,0.044
	c-0.252-0.01-0.518-0.031-0.677-0.259c-0.567-0.8-0.159-2.336-0.132-3.234c0.011-0.351-0.061-0.785,0.132-1.099
	c0.161-0.258,0.486-0.364,0.767-0.426c0.637-0.143,2.039-0.138,2.404,0.51c0.315,0.559,0.174,1.287,0.235,1.901
	C134.938,135.775,134.94,137.491,134.172,137.706z M132.134,134.479l-0.226,0.003c-0.089,0.719-0.109,1.416-0.104,2.143l0.34-0.001
	C132.139,135.936,132.316,135.135,132.134,134.479z M133.036,134.588c-0.216,0.743-0.106,1.597-0.103,2.369
	C133.49,136.596,133.414,135.08,133.036,134.588z M134.166,134.696h-0.229c-0.197,0.68-0.102,1.44-0.099,2.145
	C134.411,136.466,134.168,135.323,134.166,134.696z M132.773,111.803c0.264-0.161,0.528,0.068,0.572,0.33
	c0.059,0.331-0.146,0.923-0.445,1.097C132.221,113.631,132.354,112.056,132.773,111.803z M131.597,125.14
	c0.493-1.146,2.312-0.784,3.026-0.153c0.296,0.266,0.178,0.889,0.185,1.247c0.015,0.906,0.49,2.395-0.36,3.088
	c-0.404,0.329-1.167,0.153-1.655,0.302c0.159,0.051,0.368,0.089,0.495,0.218c0.408,0.422-0.574,1.079-0.844,0.448
	c-0.055-0.124-0.003-0.311,0.011-0.437c-0.347,0.208-0.472,0.494-0.902,0.566c0.075-0.284,0.303-0.611,0.272-0.906
	c-0.04-0.425-0.35-0.785-0.384-1.24c-0.049-0.675,0.067-1.36,0.098-2.028C131.556,125.895,131.457,125.469,131.597,125.14z
	 M132.096,125.338c0.469,0.354,1.563,0.547,1.919-0.008C133.327,125.276,132.759,125.061,132.096,125.338z M132.107,128.27
	c0.007,0.186-0.016,0.439,0.118,0.585c0.2,0.217,0.644,0.093,0.9,0.11c0.278,0.022,0.692,0.167,0.901-0.093
	c0.147-0.188,0.111-0.497,0.114-0.721l-0.008-1.811c-0.47,0.004-1.467-0.18-1.854,0.127
	C131.912,126.763,132.097,127.849,132.107,128.27z M134.483,129.729c-0.034,0.46-0.143,0.693-0.562,0.904
	C133.78,130.101,133.944,129.845,134.483,129.729z M134.425,115.848c-0.111,0.414-0.286,0.604-0.671,0.793
	C133.771,116.165,133.977,115.975,134.425,115.848z M126.394,105.583c0.922-0.39,0.647,1.369-0.015,1.567
	c-0.279,0.082-0.404-0.186-0.438-0.41C125.889,106.352,125.996,105.752,126.394,105.583z M116.571,137.365l-2.37,0.012
	c-0.324,0-0.791,0.079-1.072-0.111c-0.43-0.297-0.501-1.108-0.515-1.579c-0.021-0.796,0.052-2.03,0.634-2.651
	c0.264-0.277,0.793-0.407,1.158-0.494c0.688-0.158,1.973-0.108,2.305,0.668c0.221,0.519,0.072,1.343,0.075,1.898
	C116.789,135.887,116.717,136.599,116.571,137.365z M114.876,136.582h0.34l-0.009-2.146l-0.227,0.002
	C114.782,135.115,114.871,135.876,114.876,136.582z M113.858,136.702c0.564-0.37,0.485-1.986,0.104-2.486
	C113.736,134.991,113.855,135.896,113.858,136.702z M113.509,133.653l0.001,0.34c0.839-0.006,1.79,0.117,2.595-0.125
	C115.489,133.403,114.26,133.647,113.509,133.653z M116.106,134.434h-0.225c-0.229,0.775-0.223,1.938,0.012,2.709h0.226
	C116.345,136.368,116.341,135.205,116.106,134.434z M110.737,137.342c-0.396,0.436-1.621,0.396-2.177,0.393
	c-0.243,0.002-0.525,0.008-0.708-0.174c-0.434-0.431-0.317-1.411-0.318-1.963c-0.004-0.871,0.107-1.727,0.103-2.597
	c0.935-0.163,1.898-0.553,2.815-0.037c0.937,0.521,0.602,2.377,0.583,3.295C111.026,136.627,110.994,137.055,110.737,137.342z
	 M109.234,137.17c0.575-0.378,0.493-2.194,0.103-2.706C109.091,135.302,109.231,136.298,109.234,137.17z M108.219,137.286
	c0.604-0.393,0.403-1.972,0.216-2.595h-0.227L108.219,137.286z M108.092,133.675c0.486,0.368,1.9,0.431,2.255-0.118
	C109.609,133.56,108.804,133.465,108.092,133.675z M110.465,134.683l-0.339,0.003c0.003,0.655-0.258,1.977,0.35,2.367
	L110.465,134.683z M114.847,129.811c-0.014,0.482-0.076,0.758-0.562,0.906C114.221,130.218,114.359,129.96,114.847,129.811z
	 M115.472,116.182c0.205,0.023,0.315,0.174,0.447,0.308c-0.147,0.113-0.297,0.24-0.454,0.346
	C114.568,117.413,114.852,116.112,115.472,116.182z M112.653,117.405c-0.161-0.964,0.47-1.269,1.346-1.36
	C113.675,116.552,113.186,117.122,112.653,117.405z M108.923,116.032c0.155-0.069,0.298-0.001,0.449,0.03
	c-0.058,0.117-0.086,0.245-0.179,0.34C108.674,116.926,108.318,116.298,108.923,116.032z M103.927,137.853
	c-0.568,0.1-2.122,0.241-2.522-0.234c-0.207-0.245-0.167-0.574-0.207-0.865c-0.039-0.303-0.164-0.598-0.145-0.9
	c0.028-0.466,0.174-0.883,0.155-1.357c-0.014-0.353-0.218-0.79-0.032-1.118c0.245-0.438,0.809-0.588,1.27-0.638
	c0.451-0.051,1.492-0.03,1.806,0.357c0.482,0.604,0.349,1.908,0.351,2.627C104.603,136.298,104.683,137.722,103.927,137.853z
	 M102.802,137.307h0.34c-0.004-0.839,0.117-1.786-0.124-2.593l-0.229,0.001C102.588,135.582,102.729,136.434,102.802,137.307z
	 M102.012,137.311c0.41-0.545,0.402-2.275-0.011-2.818C101.768,135.288,101.774,136.518,102.012,137.311z M101.774,133.926
	l2.142-0.009C103.542,133.348,102.132,133.336,101.774,133.926z M104.032,134.709l-0.339,0.001l0.013,2.595l0.338-0.002
	L104.032,134.709z M102.486,116.047c0.164-0.052,0.295,0.011,0.452,0.042c-0.056,0.12-0.084,0.247-0.18,0.341
	C102.167,117.03,101.714,116.293,102.486,116.047z M103.955,115.974c-0.031,0.437-0.12,0.602-0.561,0.681
	C103.496,116.286,103.615,116.147,103.955,115.974z M96.591,137.871c-0.596,0.12-1.306,0.044-1.909,0.035
	c-0.238-0.003-0.513,0.01-0.688-0.179c-0.664-0.727-0.344-2.331-0.344-3.205c0-0.391-0.046-0.871,0.205-1.209
	c0.258-0.341,0.748-0.382,1.142-0.437c0.533-0.081,1.547-0.161,1.919,0.341c0.187,0.258,0.104,0.662,0.123,0.954
	c0.03,0.535,0.211,1.039,0.225,1.578C97.28,136.38,97.414,137.705,96.591,137.871z M96.483,137.112
	c-0.004-0.705,0.203-1.796-0.237-2.372C95.945,135.314,95.72,136.862,96.483,137.112z M95.578,137.339l-0.009-2.482l-0.339,0.001
	C95.234,135.53,94.958,136.944,95.578,137.339z M94.451,137.232l0.227-0.002c0.203-0.701,0.199-1.671-0.012-2.369l-0.225,0.003
	C94.237,135.563,94.241,136.532,94.451,137.232z M96.58,133.723c-0.755-0.175-1.616-0.171-2.371,0.011l0.002,0.225
	c0.726,0.212,1.64,0.168,2.37-0.01L96.58,133.723z M92.489,127.085c0.005,1.056,0.123,2.104,0.126,3.155
	c0.002,0.437,0.035,0.946-0.23,1.319c-0.213,0.297-0.544,0.368-0.892,0.38c-0.824,0.025-1.777-0.045-2.597-0.15
	c-0.322-0.038-0.873,0.016-1.045-0.321c-0.157-0.306-0.088-0.756-0.091-1.089l-0.009-2.372c-0.009-2.187-0.005-4.366,0.082-6.55
	c0.031-0.813-0.111-1.681,0.035-2.482c0.111-0.604,0.292-1.209,0.431-1.807c0.178-0.771,0.154-1.477,1.095-1.587
	c-0.102,0.35-0.347,0.578-0.48,0.909c-0.152,0.382-0.21,0.84-0.302,1.242c1.266-0.627,2.394-0.755,3.611-0.019
	c-0.007-0.607-0.204-1.106-0.346-1.69l0.114-0.114l0.226-0.002c0.851,2.065,0.358,4.273,0.365,6.434
	C92.584,123.925,92.484,125.505,92.489,127.085z M88.332,131.276c0.672-0.002,1.363-0.054,2.03,0.024
	c0.459,0.05,1.131,0.214,1.553-0.042c0.526-0.324,0.392-1.201,0.246-1.691c-1.064,0.64-2.776,0.706-3.613-0.325h-0.226
	L88.332,131.276z M91.18,126.636c-0.238-0.182-0.671-0.111-0.95-0.11c-0.273,0.003-0.705-0.061-0.897,0.186
	c-0.148,0.19-0.113,0.498-0.113,0.722l0.008,1.806c0.464-0.022,1.607,0.141,1.964-0.14c0.374-0.298,0.191-1.467,0.17-1.9
	C91.35,127.006,91.35,126.773,91.18,126.636z M91.243,125.619c-0.584-0.249-1.195-0.156-1.808-0.104v0.225
	C90.081,125.743,90.645,125.912,91.243,125.619z M89.197,121.79c0.01,0.203,0.013,0.446,0.179,0.591
	c0.234,0.196,0.672,0.084,0.951,0.09c0.259,0.005,0.619,0.104,0.833-0.088c0.261-0.234,0.18-0.74,0.178-1.053
	c-0.002-0.382,0.103-0.983-0.121-1.316c-0.25-0.367-1.501-0.41-1.834-0.139C88.995,120.191,89.175,121.341,89.197,121.79z
	 M90.872,118.172c-0.398,0.306-0.941,0.147-1.127,0.684c0.711-0.007,1.248,0.028,1.805-0.46L90.872,118.172z M92.049,123.201
	c-0.207-0.21-0.549-0.177-0.816-0.177c-0.624,0-1.418,0.139-2.021-0.029c-0.401-0.111-0.475-0.562-0.693-0.862
	c-0.258,1.411-0.326,2.738-0.321,4.177c0.004,0.671-0.071,1.386,0.122,2.031c0.363-0.872-0.301-2.235,0.311-3.011
	c0.203-0.257,0.508-0.246,0.803-0.284c0.379-0.05,0.744-0.19,1.129-0.17c0.441,0.024,1.008,0.306,1.433,0.094
	C92.427,124.75,92.352,123.506,92.049,123.201z M89.511,116.484c0.095-0.36,0.223-0.605,0.449-0.903
	C90.241,116.022,90,116.398,89.511,116.484z M87.167,131.279c-0.081,0.315-0.311,0.556-0.641,0.596
	c-0.395,0.046-0.834-0.134-1.242-0.134c-0.805-0.007-2.203,0.659-2.868-0.055c-0.794-0.857-0.215-2.329-0.194-3.32
	c0.063-3.133,0.314-6.228,0.302-9.372c-0.004-1.152-0.469-3.08,1.115-3.162c-0.017,0.57-0.316,0.847-0.491,1.357
	c-0.131,0.377-0.064,0.848-0.062,1.242c0.341-0.237,0.641-0.568,1.013-0.761c0.728-0.377,1.533-0.011,2.146,0.409
	c0.116-0.609-0.072-1.201,0.105-1.81l0.225-0.001c0.71,1.763,0.424,3.658,0.477,5.53c0.047,1.638,0.023,3.331,0.142,4.963
	c0.077,1.044,0.049,2.004,0.006,3.046C87.182,130.281,87.285,130.817,87.167,131.279z M83.765,118.541l0.001,0.339
	c0.637-0.002,1.305,0.063,1.917-0.122C85.181,118.378,84.372,118.538,83.765,118.541z M85.573,119.841
	c-0.268-0.332-1.632-0.31-1.832,0.09c-0.333,0.66-0.077,1.946-0.074,2.675l2.032-0.008l-0.009-1.918
	C85.69,120.424,85.742,120.055,85.573,119.841z M86.379,122.931c-1.029,0.197-2.407,0.313-3.388-0.096
	c-0.143,0.792-0.075,1.567-0.108,2.369c-0.052,1.317-0.163,2.636-0.205,3.949c-0.017,0.53-0.296,1.616,0.041,2.075
	c0.181,0.249,0.623,0.094,0.872,0.078c0.746-0.053,1.508-0.012,2.256-0.02c0.231-0.002,0.608,0.042,0.751-0.185
	c0.124-0.197,0.048-0.505,0.039-0.722c-0.02-0.563-0.008-1.134-0.01-1.694l-0.226,0.002c-0.246,1.054-1.112,1.02-2.028,1.023
	c0.147,0.129,0.458,0.279,0.516,0.479c0.088,0.31-0.328,0.582-0.598,0.492c-0.267-0.092-0.246-0.407-0.255-0.628
	c-0.402,0.089-0.453,0.483-0.9,0.565c0.117-0.27,0.376-0.594,0.346-0.905c-0.046-0.46-0.407-0.855-0.447-1.35
	c-0.05-0.597,0.119-1.209,0.129-1.807c0.005-0.361-0.128-0.768,0.018-1.114c0.354-0.852,1.635-0.596,2.3-0.455
	c0.277,0.063,0.617,0.093,0.79,0.352c0.333,0.504,0.059,1.407,0.236,1.993C87.052,126.026,86.387,124.28,86.379,122.931z
	 M83.865,126.669c-0.367,0.296-0.181,1.384-0.173,1.804c0.005,0.182-0.018,0.439,0.118,0.583c0.196,0.217,0.645,0.093,0.9,0.112
	c0.273,0.019,0.69,0.166,0.901-0.093c0.148-0.188,0.11-0.497,0.11-0.724l-0.005-1.807C85.246,126.547,84.249,126.362,83.865,126.669
	z M85.6,125.531c-0.702-0.055-1.24-0.279-1.92,0.009C84.148,125.893,85.241,126.089,85.6,125.531z M86.07,129.932
	c-0.036,0.459-0.148,0.692-0.563,0.904C85.364,130.304,85.529,130.046,86.07,129.932z M85.447,116.389
	c-0.063-0.429,0.066-0.594,0.451-0.791C85.866,115.998,85.792,116.174,85.447,116.389z M83.866,116.396
	c0.092-0.564,0.46-0.805,1.013-0.682C84.662,116.22,84.412,116.375,83.866,116.396z M81.241,128.146
	c0.095,0.782,0.012,1.48-0.019,2.259c-0.018,0.399,0.059,0.87-0.197,1.217c-0.527,0.709-1.854,0.556-2.622,0.61
	c-0.299,0.021-0.6,0.109-0.903,0.059c-1.402-0.236-1.294-2.336-1.151-3.444c0.322-2.534,0.041-5.134-0.02-7.678
	c-0.014-0.602,0.104-1.202,0.101-1.81c-0.002-1.146,0.268-3.014,1.568-3.388c-0.138,0.789-0.705,1.38-0.906,2.146
	c-0.098,0.38-0.016,0.746,0.018,1.129l0.337-0.003c0-0.262-0.046-0.601,0.113-0.83c0.354-0.504,1.38-0.648,1.908-0.411
	c0.453,0.211,0.772,0.708,1.028,1.116c0.137-0.871,0.06-1.745,0.327-2.597c0.635,0.317,0.686,0.921,0.683,1.577
	c-0.005,1.143-0.329,2.248-0.325,3.387C81.188,123.696,80.971,125.939,81.241,128.146z M78.236,118.791
	c0.45,0.186,1.104,0.186,1.579,0.104C79.34,118.698,78.749,118.788,78.236,118.791z M80.621,122.505
	c-0.178,0.181-0.349,0.438-0.585,0.545c-0.675,0.308-1.839,0.143-2.574,0.146l0-0.564c0.567-0.005,1.125-0.087,1.691-0.121
	c0.238-0.012,0.524-0.023,0.652-0.265c0.155-0.284,0.016-0.776,0.02-1.09c0.002-0.286,0.153-0.8-0.095-1.015
	c-0.354-0.306-1.96-0.25-2.118,0.249c-0.112,0.354,0,0.744-0.076,1.101c-0.062,0.281-0.24,0.516-0.288,0.806
	c-0.112,0.682-0.002,1.342-0.006,2.026c-0.004,0.72-0.105,1.424-0.103,2.144h0.226c0.005-1.235,0.981-2.099,2.25-1.765
	c0.385,0.102,0.684,0.42,1.018,0.622L80.621,122.505z M79.916,127.039c-0.232-0.465-1.776-0.573-2.095-0.167
	c-0.188,0.237-0.116,0.672-0.115,0.949c0.001,0.354-0.114,0.992,0.122,1.284c0.339,0.428,1.8,0.197,2.253,0.063
	C79.967,128.543,80.187,127.58,79.916,127.039z M79.843,125.554c-0.737,0.003-1.646-0.31-2.029,0.459
	C78.488,126.012,79.697,126.459,79.843,125.554z M80.639,126.455c0.002,0.798,0.281,2.212-0.105,2.927
	c-0.456,0.838-2.552,0.548-3.268,0.246c-0.098,0.414-0.285,1.256,0.008,1.626c0.196,0.244,0.628,0.173,0.9,0.177l2.485-0.011
	C80.771,129.894,81.277,127.925,80.639,126.455z M75.756,121.958c-0.012,0.353-0.16,0.672-0.197,1.017
	c-0.095,0.883-0.011,1.821-0.004,2.708c0.01,1.13,0.25,2.131,0.146,3.275c-0.063,0.678-0.09,1.355-0.133,2.031
	c-0.02,0.277-0.026,0.723-0.215,0.947c-0.245,0.294-0.804,0.093-1.125,0.082c-0.826-0.036-2.634,0.571-3.125-0.34
	c-0.214-0.396-0.148-0.912-0.155-1.347c-0.011-0.715-0.093-1.423-0.106-2.143c-0.048-2.868,0.075-5.714,0.061-8.575
	c-0.001-0.941-0.081-1.947,0.278-2.826c0.114-0.279,0.231-0.63,0.515-0.787c0.213-0.116,0.587-0.087,0.59,0.227
	c0.005,0.371-0.474,0.622-0.625,0.933c-0.22,0.451-0.173,1.152-0.305,1.66c0.153-0.176,0.281-0.424,0.48-0.55
	c0.283-0.172,0.665-0.134,0.983-0.136c0.848-0.003,1.554,0.103,2.37,0.328c-0.095-0.426-0.181-1.025-0.079-1.461
	c0.048-0.201,0.238-0.437,0.458-0.261c0.188,0.15,0.193,0.484,0.229,0.701c0.113,0.742,0.08,1.518-0.006,2.258
	C75.699,120.472,75.787,121.196,75.756,121.958z M71.282,129.542c0.123,0.641,0.119,1.267,0.122,1.917l3.499-0.016l-0.006-1.808
	c-0.716,0.227-1.505,0.33-2.255,0.211C72.161,129.771,71.778,129.552,71.282,129.542z M74.543,126.816
	c-0.444-0.131-1.811-0.342-2.14,0.079c-0.149,0.189-0.113,0.497-0.113,0.722l0.008,1.692l2.256-0.012
	C74.444,128.455,74.391,127.663,74.543,126.816z M74.314,125.803c-0.623-0.377-1.499-0.624-1.917,0.122
	C73.009,125.921,73.773,126.124,74.314,125.803z M72.818,118.812c0.417,0.17,0.905,0.109,1.354,0.107
	C73.756,118.743,73.267,118.81,72.818,118.812z M74.335,120.085c-0.206-0.417-1.481-0.363-1.814-0.14
	c-0.366,0.244-0.258,0.861-0.257,1.24c0.002,0.371-0.105,0.963,0.073,1.304c0.237,0.445,1.466,0.334,1.825,0.108
	c0.424-0.264,0.261-0.778,0.25-1.198C74.399,121.015,74.513,120.439,74.335,120.085z M74.982,123.431
	c-0.203,0.163-0.419,0.402-0.681,0.467c-0.863,0.209-2.046-0.719-2.821-1.017c0.064,0.757,0.119,1.495,0.121,2.254
	c0.659-0.08,1.237-0.281,1.918-0.221c0.504,0.044,0.96,0.279,1.469,0.32L74.982,123.431z M73.429,130.096
	c-0.001,0.142,0.015,0.311-0.016,0.447c-0.157,0.716-0.913,0.177-0.316-0.33C73.192,130.135,73.323,130.128,73.429,130.096z
	 M71.651,132.992c0.248-0.188,0.588-0.206,0.886-0.249c0.587-0.086,1.533-0.105,1.917,0.456c0.161,0.24,0.112,0.569,0.139,0.84
	c0.061,0.608,0.104,1.193,0.099,1.808c-0.003,0.649-0.05,2.021-0.898,2.127c-0.297,0.035-0.6-0.073-0.898-0.067
	c-0.43,0.006-1.013,0.362-1.385,0.015c-0.412-0.385-0.313-1.216-0.314-1.721C71.193,135.338,70.858,133.587,71.651,132.992z
	 M73.682,136.98c0.63-0.413,0.414-2.277,0.214-2.938H73.67L73.682,136.98z M72.894,136.982c0.476-0.632,0.218-1.937,0.214-2.708
	H72.77C72.774,135.145,72.642,136.143,72.894,136.982z M71.99,137.096c0.492-0.65,0.216-2.022,0.214-2.82l-0.336,0.004
	C71.871,135.182,71.729,136.229,71.99,137.096z M74.008,133.707l-0.001-0.341c-0.772,0.004-1.629-0.1-2.372,0.122
	C72.217,133.923,73.305,133.71,74.008,133.707z M83.598,132.936c0.629-0.14,1.983-0.055,2.292,0.631
	c0.255,0.574,0.086,1.5,0.09,2.12c0.002,0.678,0.197,1.989-0.673,2.226c-0.57,0.155-1.324,0.051-1.914,0.044
	c-0.232-0.007-0.511,0.011-0.683-0.179c-0.313-0.341-0.203-0.977-0.235-1.397C82.385,135.144,82.054,133.269,83.598,132.936z
	 M83.149,133.777c0.625,0.478,1.623,0.336,2.37,0.33C85.104,133.45,83.813,133.581,83.149,133.777z M85.197,137.157l0.338-0.001
	c0.091-0.765,0.368-1.894-0.236-2.48C85.071,135.449,85.191,136.354,85.197,137.157z M84.294,137.162
	c0.633-0.383,0.385-1.677,0.104-2.259h-0.227L84.294,137.162z M83.617,137.389c-0.061-0.721,0.113-2.103-0.573-2.48
	C83.045,135.677,82.85,136.946,83.617,137.389z M88.069,133.495c0.321-0.355,0.952-0.422,1.398-0.482
	c0.554-0.076,1.589-0.006,1.917,0.534c0.338,0.555,0.123,1.707,0.126,2.343c0.002,0.685,0.159,1.949-0.783,2.075
	c-0.572,0.074-1.219-0.031-1.804-0.013c-0.252,0.013-0.511,0.019-0.693-0.191c-0.198-0.219-0.204-0.565-0.244-0.842
	c-0.114-0.786-0.089-1.576-0.091-2.371C87.894,134.212,87.824,133.768,88.069,133.495z M90.614,137.248
	c0.568-0.564,0.329-1.642,0.215-2.373l-0.226,0.002C90.433,135.614,90.491,136.503,90.614,137.248z M89.928,134.766l-0.451,0.003
	c0.002,0.78,0.052,1.513-0.218,2.258C90.32,137.18,89.836,135.423,89.928,134.766z M90.938,133.861
	c-0.75-0.137-1.5-0.108-2.259-0.104C89.031,134.388,90.449,134.309,90.938,133.861z M88.92,137.143
	c-0.001-0.697,0.248-1.743-0.01-2.372C88.319,135.177,88.126,136.883,88.92,137.143z M60.875,123.489
	c0.49-0.098,0.97-0.011,1.468-0.009C61.989,124.225,61.137,124.378,60.875,123.489z M57.876,131.621
	c-0.196,0.452-0.602,0.448-1.03,0.463c-0.759,0.028-1.492,0.147-2.255,0.116c-0.312-0.015-0.72-0.038-0.95-0.278
	c-0.382-0.409-0.258-1.647-0.322-2.194c-0.044-0.38-0.152-0.745-0.194-1.129c-0.167-1.615-0.519-5.069,1.766-5.084
	c-0.217,0.624-0.665,0.837-0.669,1.58c0.619-0.194,1.263-0.321,1.917-0.204c0.28,0.054,0.686,0.333,0.95,0.114
	c0.3-0.256,0.157-0.838,0.401-1.163c0.898,1.63,0.6,3.422,0.587,5.19C58.072,129.808,58.195,130.894,57.876,131.621z
	 M54.564,125.659l0.001,0.226l0.113,0.114c0.566-0.107,1.117-0.119,1.692-0.119C56.083,124.957,55.23,125.252,54.564,125.659z
	 M56.387,127.796c0.012-0.223,0.092-0.521-0.042-0.719c-0.207-0.301-1.104-0.262-1.322,0.007c-0.383,0.459-0.331,1.617-0.33,2.188
	l1.804-0.009C56.432,128.769,56.362,128.293,56.387,127.796z M57.108,129.835c-0.249-0.166-0.682,0.012-0.949,0.057
	c-0.652,0.104-1.269-0.007-1.919-0.055c0.004,0.245-0.042,0.613,0.184,0.783c0.251,0.194,0.668,0.057,0.947,0.017
	c0.493-0.068,0.876-0.029,1.356,0.091l0.001,0.339c-0.851,0.162-1.531,0.272-2.37,0.011c-0.063,0.205-0.091,0.354-0.112,0.563
	l1.919-0.007c0.261-0.001,0.614,0.052,0.855-0.071C57.401,131.37,57.46,130.075,57.108,129.835z M57.346,133.202
	c0.248,0.273,0.08,0.687,0.098,1.024c0.048,0.86,0.199,1.734,0.025,2.593c-0.052,0.258-0.1,0.625-0.325,0.792
	c-0.246,0.185-0.666,0.116-0.951,0.116l-2.031,0.01l-0.012-3.046c-0.001-0.448-0.102-1.049,0.126-1.454
	C54.772,132.343,56.741,132.515,57.346,133.202z M56.642,137.05l0.226-0.001c0.175-0.751,0.352-2.135-0.238-2.706
	C56.441,135.155,56.403,136.248,56.642,137.05z M55.628,137.055l0.337-0.002c-0.002-0.805,0.111-1.706-0.124-2.481l-0.225,0.002
	L55.628,137.055z M54.838,137.058c0.397-0.528,0.39-2.069-0.012-2.594C54.608,135.214,54.612,136.309,54.838,137.058z
	 M54.598,134.012c0.671-0.002,1.386,0.073,2.031-0.123c-0.522-0.392-1.398-0.22-2.032-0.217L54.598,134.012z M52.14,136.617
	c-0.066,0.316-0.057,0.877-0.384,1.046c-0.741,0.382-2.089-0.02-2.899-0.016c-0.003-0.94,0.131-1.895,0.097-2.823
	c-0.018-0.515-0.23-1.079,0.035-1.565c0.419-0.778,2.619-0.72,3.156-0.096c0.516,0.598,0.186,1.318,0.109,1.988
	C52.196,135.645,52.243,136.126,52.14,136.617z M50.547,136.965c0.593-0.392,0.402-1.873,0.217-2.486h-0.226L50.547,136.965z
	 M49.533,137.079l0.225-0.002c0.162-0.758-0.007-1.694-0.009-2.481l-0.338,0.002C49.414,135.401,49.3,136.305,49.533,137.079z
	 M51.662,133.57c-0.653-0.151-1.737-0.302-2.142,0.347c0.716-0.003,1.442,0.05,2.144-0.118L51.662,133.57z M51.328,134.363
	c-0.16,0.637-0.433,2.594,0.349,2.818C51.673,136.364,51.95,134.97,51.328,134.363z M47.07,131.646
	c-0.26,0.31-0.792,0.364-1.17,0.365c-1.046,0.007-2.106-0.102-3.16-0.097c-0.103-0.692,0.11-1.342,0.09-2.03
	c-0.031-1.088-0.313-2.179-0.317-3.272c-0.004-0.92,0.287-1.836,0.531-2.71l0.792-0.115l-0.332,1.581
	c0.854-0.541,1.518-0.926,2.476-0.331c0.188,0.116,0.395,0.251,0.485,0.461c0.188,0.427,0.041,1.184,0.098,1.663
	c0.086,0.741,0.317,1.733-0.255,2.344c-0.582,0.619-2.034,0.438-2.786,0.264l0.002,0.903c0.757-0.323,1.574-0.268,2.369-0.122
	c-0.146,0.896-1.66,0.57-2.366,0.572l0.001,0.34c0.78-0.003,2.262,0.42,2.916-0.082c0.487-0.371,0.21-1.102,0.256-1.627
	c0.149-1.677,0.193-3.394,0.185-5.08c0.619,0.178,0.446,1.051,0.526,1.581c0.194,1.303,0.138,2.644-0.021,3.95
	C47.329,130.686,47.41,131.248,47.07,131.646z M45.555,125.646c-0.424-0.511-1.543-0.141-1.71,0.399l0.791-0.003
	c0.148-0.004,0.301,0.003,0.45-0.01C45.26,126.024,45.811,125.954,45.555,125.646z M43.857,129.315l1.807-0.006
	c-0.091-0.849,0.104-1.736,0.102-2.599c-0.612,0.002-1.202,0.005-1.807-0.103C43.714,127.444,43.855,128.443,43.857,129.315z
	 M43.795,132.817c0.238-0.161,0.595-0.118,0.866-0.118c0.669-0.004,1.85-0.231,2.255,0.459c0.334,0.573,0.123,1.706,0.125,2.351
	c0.003,0.565,0.216,1.677-0.355,2.033c-0.329,0.2-0.848,0.118-1.215,0.118c-0.458,0.003-1.153,0.132-1.563-0.107
	c-0.771-0.45-0.595-1.973-0.592-2.703C43.317,134.32,43.298,133.152,43.795,132.817z M46.033,136.869l0.225-0.001
	c0.208-0.713,0.106-1.519,0.104-2.258l-0.451,0.003C45.914,135.35,45.82,136.158,46.033,136.869z M45.355,136.985
	c0.184-0.785,0.223-1.819-0.009-2.594H45.12C44.949,135.126,44.78,136.424,45.355,136.985z M46.357,133.708
	c-0.607-0.18-1.859-0.498-2.256,0.122C44.802,133.827,45.845,134.227,46.357,133.708z M44.115,136.877l0.45-0.114
	c-0.177-0.735-0.118-1.504-0.122-2.258l-0.227,0.002C44.001,135.25,44.111,136.106,44.115,136.877z M41.066,137.629
	c-0.524,0.154-2.213,0.268-2.571-0.223c-0.53-0.726-0.143-2.162-0.144-2.988c-0.001-0.351-0.069-0.793,0.111-1.109
	c0.18-0.314,0.559-0.462,0.896-0.535c0.26-0.054,0.528-0.059,0.791-0.056c1.714,0.028,1.472,1.521,1.478,2.816
	C41.627,136.18,41.875,137.39,41.066,137.629z M39.828,136.894h0.225c0.211-0.726,0.206-1.757-0.01-2.483h-0.225
	C39.632,135.196,39.637,136.114,39.828,136.894z M39.036,136.896h0.226c0.18-0.77,0.107-1.583,0.102-2.373l-0.338,0.004
	C39.028,135.316,38.807,136.133,39.036,136.896z M40.828,133.506l-1.918,0.009c0.357,0.546,1.33,0.333,1.92,0.33L40.828,133.506z
	 M40.831,134.408c-0.336,0.635-0.42,1.84,0.123,2.368C41.141,136.14,41.247,134.953,40.831,134.408z M36.803,131.921
	c-0.285,0.228-0.833,0.136-1.174,0.138c-1.058,0.003-2.105-0.103-3.16-0.099c-0.003-0.638,0.124-1.288,0.093-1.92
	c-0.108-2.194-0.417-4.174,0.211-6.32l0.225-0.002c0.137,0.567,0.057,1.122,0.12,1.692c0.83-0.356,2.092-0.838,2.828,0.051
	c0.283,0.339,0.202,0.886,0.243,1.289c0.109,1.071,0.43,2.596-0.796,3.135c-0.79,0.346-1.644-0.149-2.374-0.412
	c0.004,0.187-0.011,0.386,0.04,0.565c0.308,1.122,1.807,0.16,2.527,0.523c0.726,0.369-0.286,0.714-0.64,0.675
	c-0.368-0.037-0.656-0.046-1.015,0.039v0.226c0.533,0.126,1.874,0.354,2.301-0.079c0.307-0.31,0.177-1.005,0.175-1.398
	c-0.004-1.281-0.004-2.561-0.016-3.838c-0.005-0.701-0.513-2.097,0.443-2.258c0.006,1.513,0.075,3,0.117,4.513
	c0.013,0.422-0.097,0.815-0.043,1.243C36.97,130.168,37.239,131.574,36.803,131.921z M33.911,125.633
	c0.121,0.546,1.005,0.335,1.469,0.332C34.997,125.718,34.373,125.752,33.911,125.633z M33.809,128.231
	c0.006,0.382,0.066,0.748,0.118,1.126c0.379,0,0.979,0.104,1.307-0.121c0.498-0.348,0.421-2.063-0.091-2.367
	c-0.41-0.239-1.228-0.202-1.318,0.351C33.768,127.543,33.805,127.902,33.809,128.231z M33.629,132.976
	c0.224-0.143,0.513-0.12,0.765-0.123c0.601-0.006,1.656-0.138,2.024,0.486c0.152,0.262,0.023,0.582,0.044,0.86
	c0.031,0.381,0.168,0.753,0.215,1.128c0.07,0.565,0.106,1.747-0.415,2.147c-0.285,0.215-0.839,0.119-1.175,0.119
	c-0.423,0.004-1.274,0.166-1.627-0.106c-0.192-0.154-0.183-0.454-0.214-0.676c-0.096-0.669-0.007-1.252,0.019-1.919
	C33.291,134.334,33.062,133.323,33.629,132.976z M35.764,137.026h0.225c0.198-0.845,0.238-1.998-0.012-2.826h-0.224
	C35.521,135.002,35.524,136.226,35.764,137.026z M34.634,137.03c0.705-0.211,0.367-2.004,0.216-2.599l-0.226,0.002
	C34.375,135.288,34.613,136.161,34.634,137.03z M35.524,133.413l-1.468,0.12C34.405,134.022,35.322,134.025,35.524,133.413z
	 M33.957,136.807c0.391-0.52,0.386-1.966-0.009-2.483C33.734,135.049,33.74,136.082,33.957,136.807z M30.092,130.517
	c0.234,0.038,0.576,0.197,0.483,0.502c-0.074,0.243-0.388,0.246-0.593,0.238c-0.506-0.028-1.172,0.015-1.581-0.296
	C28.927,130.655,29.468,130.422,30.092,130.517z M31.357,132.12c-0.2,0.212-0.538,0.184-0.805,0.185
	c-0.717,0.011-1.425-0.101-2.144-0.103c-0.277,0-0.701,0.053-0.902-0.193c-0.304-0.374-0.122-1.376-0.125-1.834l-0.012-2.82
	c-0.003-1.261,0.039-2.3,0.439-3.502h0.338c-0.007,0.542-0.188,1.045-0.212,1.579c-0.089,2.027-0.101,4.064-0.093,6.096
	c0.999,0.122,2.042,0.214,3.048,0.214c0.061-0.798,0.105-1.573,0.103-2.372c-0.627,0.623-1.037,0.688-1.916,0.686
	c-0.243-0.001-0.615,0.045-0.787-0.176c-0.273-0.365,0.002-1.504-0.012-1.966c-0.026-0.732-0.438-1.518-0.166-2.258
	c0.429-1.154,2.123-0.765,2.866-0.235l0.106-1.581c0.641,0.207,0.553,1.22,0.567,1.803c0.043,1.543,0.017,3.086,0.022,4.628
	C31.674,130.793,31.75,131.705,31.357,132.12z M29.51,125.734c-0.368,0.004-0.647-0.145-1.016-0.081
	c0.358,0.646,1.781,0.725,1.916-0.121C30.118,125.598,29.813,125.731,29.51,125.734z M29.001,126.896
	c-0.589,0.409-0.382,1.867-0.379,2.483l1.691-0.009c-0.001-0.898,0.331-1.697,0.329-2.597
	C30.189,126.776,29.389,126.626,29.001,126.896z M28.976,132.951c0.534-0.103,1.639,0.05,1.898,0.608
	c0.246,0.531,0.144,1.542,0.145,2.131c0.002,0.485,0.141,1.581-0.471,1.771c-0.574,0.177-1.403,0.053-2.002,0.044
	c-0.242-0.005-0.498,0.005-0.683-0.178c-0.213-0.21-0.295-0.547-0.327-0.834c-0.081-0.804-0.274-2.466,0.282-3.124
	C28.064,133.078,28.618,133.015,28.976,132.951z M30.122,136.936l0.337-0.002c-0.003-0.681,0.191-1.697-0.235-2.255
	C30.017,135.387,30.118,136.196,30.122,136.936z M29.444,136.939h0.226c0.179-0.76,0.214-1.737-0.01-2.485h-0.226
	C29.213,135.205,29.259,136.18,29.444,136.939z M28.54,136.715l0.338-0.004l-0.007-1.918l-0.339,0.001L28.54,136.715z
	 M30.108,134.113l-0.001-0.227c-0.549-0.116-1.375-0.162-1.579,0.459L30.108,134.113z M26.48,130.18
	c-0.01,0.481-0.006,1.275-0.379,1.63c-0.716,0.685-2.255,0.453-3.112,0.258c-0.341-0.081-0.783-0.038-0.949-0.42
	c-0.249-0.564-0.073-1.516-0.077-2.127c-0.005-1.558-0.071-3.091,0.169-4.629c0.047-0.292-0.007-0.607,0.07-0.893
	c0.189-0.701,2.224-0.682,2.446-0.019c-0.451,0.083-1.157-0.145-1.543,0.042c-0.268,0.13-0.323,0.491-0.351,0.754
	c-0.073,0.672-0.092,1.496,0.103,2.145c0.055-0.648,0.313-1.441,0.899-1.801c0.526-0.321,1.813-0.211,2.064,0.463
	c0.102,0.281-0.02,0.691-0.03,0.986l0.225-0.003c-0.002-0.826-0.151-1.562-0.235-2.369c0.576,0.183,0.707,0.911,0.773,1.466
	c0.073,0.573-0.059,1.121-0.081,1.692C26.437,128.297,26.498,129.236,26.48,130.18z M23.752,125.674l-0.111,0.453
	c0.556-0.001,1.36,0.17,1.691-0.346C24.796,125.785,24.285,125.774,23.752,125.674z M23.591,129.173
	c0.39,0.268,1.19,0.111,1.644,0.109c-0.003-0.588,0.228-1.823-0.125-2.314c-0.277-0.383-0.998-0.321-1.34-0.08
	C23.259,127.246,22.999,128.767,23.591,129.173z M25.913,129.39c-0.511,0.601-1.838,0.886-2.578,0.459
	c-0.253-0.148-0.34-0.432-0.471-0.67c-0.089,0.492-0.087,0.967-0.116,1.468c-0.013,0.221-0.104,0.521,0.027,0.724
	c0.151,0.238,0.529,0.251,0.776,0.286c0.684,0.095,1.651,0.225,2.208-0.309C26.212,130.917,26.073,129.924,25.913,129.39z
	 M23.099,131.095c0.825-0.463,2.073-0.973,2.596,0.1C24.849,131.227,23.793,131.799,23.099,131.095z M23.784,132.833
	c0.574-0.101,1.856-0.205,2.255,0.34c0.162,0.218,0.162,0.584,0.22,0.845c0.208,0.947,0.4,3.204-0.876,3.477
	c-0.485,0.105-1.899,0.298-2.254-0.15c-0.236-0.292-0.117-0.926-0.123-1.282C22.991,135.099,22.515,133.065,23.784,132.833z
	 M25.492,136.728c-0.003-0.68,0.191-1.699-0.235-2.255C25.085,135.064,24.915,136.36,25.492,136.728z M24.364,136.732l0.337-0.001
	l-0.009-2.258l-0.337,0.003L24.364,136.732z M23.687,136.734l0.337-0.001l-0.008-2.257l-0.338,0.002L23.687,136.734z
	 M23.562,133.917c0.591-0.003,1.563,0.202,1.916-0.347l-1.918,0.008L23.562,133.917z M59.339,133.269
	c0.308-0.478,0.957-0.522,1.461-0.588c0.397-0.056,1.05-0.12,1.385,0.168c0.243,0.214,0.192,0.618,0.201,0.908
	c0.021,0.68,0.043,1.342,0.016,2.029c-0.025,0.611,0.125,1.769-0.681,1.906c-0.481,0.081-1.787,0.211-2.155-0.156
	c-0.697-0.691-0.231-2.245-0.236-3.09C59.33,134.078,59.125,133.601,59.339,133.269z M61.609,137.029l0.451-0.001
	c-0.169-0.895-0.12-1.806-0.124-2.709l-0.338,0.001L61.609,137.029z M60.818,137.144c0.487-0.65,0.217-2.025,0.214-2.82
	l-0.338,0.004C60.699,135.229,60.558,136.274,60.818,137.144z M61.933,133.643c-0.38-0.58-1.458-0.279-2.032-0.105
	C60.447,133.945,61.284,133.646,61.933,133.643z M60.029,137.148c0.462-0.616,0.218-1.847,0.215-2.597l-0.339,0.002
	C59.909,135.391,59.786,136.344,60.029,137.148z M59.664,130.72c0.952-0.025,1.706-0.393,2.596,0.099l0.001,0.228
	C61.556,131.215,59.975,131.603,59.664,130.72z M150.511,130.002l0.227-0.005l0.111,0.12c-0.086,0.345-0.184,0.547-0.446,0.788
	C150.326,130.55,150.37,130.338,150.511,130.002z M151.861,129.771c-0.08,0.462-0.203,0.856-0.672,1.018
	c0.038-0.382,0.164-0.671,0.334-1.018H151.861z"/>
</svg>
